M48
; DRILL file {KiCad 7.0.3} date Sat 24 Jun 2023 05:47:07 PM EDT
; FORMAT={-:-/ absolute / inch / decimal}
; #@! TF.CreationDate,2023-06-24T17:47:07-04:00
; #@! TF.GenerationSoftware,Kicad,Pcbnew,7.0.3
; #@! TF.FileFunction,Plated,1,2,PTH
FMAT,2
INCH
; #@! TA.AperFunction,Plated,PTH,ViaDrill
T1C0.0157
; #@! TA.AperFunction,Plated,PTH,ComponentDrill
T2C0.0315
; #@! TA.AperFunction,Plated,PTH,ComponentDrill
T3C0.0394
; #@! TA.AperFunction,Plated,PTH,ComponentDrill
T4C0.0598
%
G90
G05
T1
X5.475Y-4.3
X5.6Y-4.45
T2
X5.1Y-4.55
X5.1Y-4.6484
T3
X4.2Y-4.2
X4.2Y-4.3
X4.4Y-2.8
X4.4Y-2.9
X4.4Y-3.0
X4.4Y-3.1
X4.4Y-3.2
X4.4Y-3.3
X4.4Y-3.4
X4.4Y-3.5
X4.4Y-3.6
X4.4Y-3.7
X4.4Y-3.8
X4.4Y-3.9
X4.4Y-4.0
X4.4Y-4.1
X4.4Y-4.2
X4.8498Y-3.2006
X4.8498Y-3.3006
X4.8498Y-3.4006
X4.8498Y-3.5006
X4.8498Y-3.6006
X4.8498Y-3.7006
X4.8498Y-3.8006
X4.8498Y-3.9006
X4.9498Y-3.2006
X4.9498Y-3.3006
X4.9498Y-3.4006
X4.9498Y-3.5006
X4.9498Y-3.6006
X4.9498Y-3.7006
X4.9498Y-3.8006
X4.9498Y-3.9006
X5.4Y-2.8
X5.4Y-2.9
X5.4Y-3.0
X5.4Y-3.1
X5.4Y-3.2
X5.4Y-3.3
X5.4Y-3.4
X5.4Y-3.5
X5.4Y-3.6
X5.4Y-3.7
X5.4Y-3.8
X5.4Y-3.9
X5.4Y-4.0
X5.4Y-4.1
X5.4Y-4.2
X5.7Y-4.0
X5.7Y-4.25
X5.7Y-4.35
X5.7Y-4.45
X5.7Y-4.55
X5.7Y-4.65
X5.7Y-4.75
T4
X4.99Y-4.945
X5.19Y-4.945
T3
G00X4.5282Y-4.54
M15
G01X4.6306Y-4.54
M16
G05
G00X4.5361Y-4.788
M15
G01X4.6227Y-4.788
M16
G05
G00X4.7684Y-4.6109
M15
G01X4.7684Y-4.6975
M16
G05
T0
M30
