%TF.GenerationSoftware,KiCad,Pcbnew,7.0.3*%
%TF.CreationDate,2023-06-24T17:47:24-04:00*%
%TF.ProjectId,ESP32-HUB75-Board,45535033-322d-4485-9542-37352d426f61,rev?*%
%TF.SameCoordinates,Original*%
%TF.FileFunction,Soldermask,Top*%
%TF.FilePolarity,Negative*%
%FSLAX46Y46*%
G04 Gerber Fmt 4.6, Leading zero omitted, Abs format (unit mm)*
G04 Created by KiCad (PCBNEW 7.0.3) date 2023-06-24 17:47:24*
%MOMM*%
%LPD*%
G01*
G04 APERTURE LIST*
%ADD10O,2.000000X1.200000*%
%ADD11C,2.200000*%
%ADD12O,1.700000X1.700000*%
%ADD13R,1.700000X1.700000*%
%ADD14R,4.600000X2.000000*%
%ADD15O,4.200000X2.000000*%
%ADD16O,2.000000X4.200000*%
%ADD17R,3.000000X3.000000*%
%ADD18C,3.000000*%
%ADD19R,1.600000X1.600000*%
%ADD20C,1.600000*%
G04 APERTURE END LIST*
D10*
%TO.C,U1*%
X111760000Y-71120000D03*
X111760000Y-73660000D03*
X111760000Y-76200000D03*
X111760000Y-78740000D03*
X111760000Y-81280000D03*
X111760000Y-83820000D03*
X111760000Y-86360000D03*
X111760000Y-88900000D03*
X111760000Y-91440000D03*
X111760000Y-93980000D03*
X111760000Y-96520000D03*
X111760000Y-99060000D03*
X111760000Y-101600000D03*
X111760000Y-104140000D03*
X111760000Y-106680000D03*
X137160000Y-106680000D03*
X137160000Y-104140000D03*
X137160000Y-101600000D03*
X137160000Y-99060000D03*
X137160000Y-96520000D03*
X137160000Y-93980000D03*
X137160000Y-91440000D03*
X137160000Y-88900000D03*
X137160000Y-86360000D03*
X137160000Y-83820000D03*
X137160000Y-81280000D03*
X137160000Y-78740000D03*
X137160000Y-76200000D03*
X137160000Y-73660000D03*
X137160000Y-71120000D03*
%TD*%
D11*
%TO.C,H4*%
X104140000Y-127000000D03*
%TD*%
%TO.C,H3*%
X144780000Y-127000000D03*
%TD*%
%TO.C,H2*%
X144780000Y-64770000D03*
%TD*%
%TO.C,H1*%
X104140000Y-64770000D03*
%TD*%
D12*
%TO.C,J5*%
X106680000Y-106680000D03*
D13*
X106680000Y-109220000D03*
%TD*%
D14*
%TO.C,J1*%
X116317000Y-115316000D03*
D15*
X116317000Y-121616000D03*
D16*
X121117000Y-118216000D03*
%TD*%
D13*
%TO.C,J4*%
X123185000Y-81295000D03*
D12*
X125725000Y-81295000D03*
X123185000Y-83835000D03*
X125725000Y-83835000D03*
X123185000Y-86375000D03*
X125725000Y-86375000D03*
X123185000Y-88915000D03*
X125725000Y-88915000D03*
X123185000Y-91455000D03*
X125725000Y-91455000D03*
X123185000Y-93995000D03*
X125725000Y-93995000D03*
X123185000Y-96535000D03*
X125725000Y-96535000D03*
X123185000Y-99075000D03*
X125725000Y-99075000D03*
%TD*%
D13*
%TO.C,TP1*%
X144780000Y-101600000D03*
%TD*%
D17*
%TO.C,J2*%
X126746000Y-125603000D03*
D18*
X131826000Y-125603000D03*
%TD*%
D12*
%TO.C,J3*%
X144780000Y-120650000D03*
X144780000Y-118110000D03*
X144780000Y-115570000D03*
X144780000Y-113030000D03*
X144780000Y-110490000D03*
D13*
X144780000Y-107950000D03*
%TD*%
D19*
%TO.C,C1*%
X129540000Y-118070000D03*
D20*
X129540000Y-115570000D03*
%TD*%
M02*
