%TF.GenerationSoftware,KiCad,Pcbnew,7.0.3*%
%TF.CreationDate,2023-06-24T17:47:24-04:00*%
%TF.ProjectId,ESP32-HUB75-Board,45535033-322d-4485-9542-37352d426f61,rev?*%
%TF.SameCoordinates,Original*%
%TF.FileFunction,Legend,Top*%
%TF.FilePolarity,Positive*%
%FSLAX46Y46*%
G04 Gerber Fmt 4.6, Leading zero omitted, Abs format (unit mm)*
G04 Created by KiCad (PCBNEW 7.0.3) date 2023-06-24 17:47:24*
%MOMM*%
%LPD*%
G01*
G04 APERTURE LIST*
%ADD10C,0.150000*%
%ADD11C,0.100000*%
%ADD12C,0.120000*%
G04 APERTURE END LIST*
D10*
%TO.C,U1*%
X123796779Y-68474819D02*
X123796779Y-69284342D01*
X123796779Y-69284342D02*
X123844398Y-69379580D01*
X123844398Y-69379580D02*
X123892017Y-69427200D01*
X123892017Y-69427200D02*
X123987255Y-69474819D01*
X123987255Y-69474819D02*
X124177731Y-69474819D01*
X124177731Y-69474819D02*
X124272969Y-69427200D01*
X124272969Y-69427200D02*
X124320588Y-69379580D01*
X124320588Y-69379580D02*
X124368207Y-69284342D01*
X124368207Y-69284342D02*
X124368207Y-68474819D01*
X125368207Y-69474819D02*
X124796779Y-69474819D01*
X125082493Y-69474819D02*
X125082493Y-68474819D01*
X125082493Y-68474819D02*
X124987255Y-68617676D01*
X124987255Y-68617676D02*
X124892017Y-68712914D01*
X124892017Y-68712914D02*
X124796779Y-68760533D01*
%TO.C,J5*%
X106445350Y-102324819D02*
X106445350Y-103039104D01*
X106445350Y-103039104D02*
X106397731Y-103181961D01*
X106397731Y-103181961D02*
X106302493Y-103277200D01*
X106302493Y-103277200D02*
X106159636Y-103324819D01*
X106159636Y-103324819D02*
X106064398Y-103324819D01*
X107397731Y-102324819D02*
X106921541Y-102324819D01*
X106921541Y-102324819D02*
X106873922Y-102801009D01*
X106873922Y-102801009D02*
X106921541Y-102753390D01*
X106921541Y-102753390D02*
X107016779Y-102705771D01*
X107016779Y-102705771D02*
X107254874Y-102705771D01*
X107254874Y-102705771D02*
X107350112Y-102753390D01*
X107350112Y-102753390D02*
X107397731Y-102801009D01*
X107397731Y-102801009D02*
X107445350Y-102896247D01*
X107445350Y-102896247D02*
X107445350Y-103134342D01*
X107445350Y-103134342D02*
X107397731Y-103229580D01*
X107397731Y-103229580D02*
X107350112Y-103277200D01*
X107350112Y-103277200D02*
X107254874Y-103324819D01*
X107254874Y-103324819D02*
X107016779Y-103324819D01*
X107016779Y-103324819D02*
X106921541Y-103277200D01*
X106921541Y-103277200D02*
X106873922Y-103229580D01*
%TO.C,J1*%
X116082350Y-112270819D02*
X116082350Y-112985104D01*
X116082350Y-112985104D02*
X116034731Y-113127961D01*
X116034731Y-113127961D02*
X115939493Y-113223200D01*
X115939493Y-113223200D02*
X115796636Y-113270819D01*
X115796636Y-113270819D02*
X115701398Y-113270819D01*
X117082350Y-113270819D02*
X116510922Y-113270819D01*
X116796636Y-113270819D02*
X116796636Y-112270819D01*
X116796636Y-112270819D02*
X116701398Y-112413676D01*
X116701398Y-112413676D02*
X116606160Y-112508914D01*
X116606160Y-112508914D02*
X116510922Y-112556533D01*
%TO.C,J4*%
X124220350Y-78419819D02*
X124220350Y-79134104D01*
X124220350Y-79134104D02*
X124172731Y-79276961D01*
X124172731Y-79276961D02*
X124077493Y-79372200D01*
X124077493Y-79372200D02*
X123934636Y-79419819D01*
X123934636Y-79419819D02*
X123839398Y-79419819D01*
X125125112Y-78753152D02*
X125125112Y-79419819D01*
X124887017Y-78372200D02*
X124648922Y-79086485D01*
X124648922Y-79086485D02*
X125267969Y-79086485D01*
%TO.C,TP1*%
X143616779Y-98724819D02*
X144188207Y-98724819D01*
X143902493Y-99724819D02*
X143902493Y-98724819D01*
X144521541Y-99724819D02*
X144521541Y-98724819D01*
X144521541Y-98724819D02*
X144902493Y-98724819D01*
X144902493Y-98724819D02*
X144997731Y-98772438D01*
X144997731Y-98772438D02*
X145045350Y-98820057D01*
X145045350Y-98820057D02*
X145092969Y-98915295D01*
X145092969Y-98915295D02*
X145092969Y-99058152D01*
X145092969Y-99058152D02*
X145045350Y-99153390D01*
X145045350Y-99153390D02*
X144997731Y-99201009D01*
X144997731Y-99201009D02*
X144902493Y-99248628D01*
X144902493Y-99248628D02*
X144521541Y-99248628D01*
X146045350Y-99724819D02*
X145473922Y-99724819D01*
X145759636Y-99724819D02*
X145759636Y-98724819D01*
X145759636Y-98724819D02*
X145664398Y-98867676D01*
X145664398Y-98867676D02*
X145569160Y-98962914D01*
X145569160Y-98962914D02*
X145473922Y-99010533D01*
%TO.C,J2*%
X129051350Y-119977819D02*
X129051350Y-120692104D01*
X129051350Y-120692104D02*
X129003731Y-120834961D01*
X129003731Y-120834961D02*
X128908493Y-120930200D01*
X128908493Y-120930200D02*
X128765636Y-120977819D01*
X128765636Y-120977819D02*
X128670398Y-120977819D01*
X129479922Y-120073057D02*
X129527541Y-120025438D01*
X129527541Y-120025438D02*
X129622779Y-119977819D01*
X129622779Y-119977819D02*
X129860874Y-119977819D01*
X129860874Y-119977819D02*
X129956112Y-120025438D01*
X129956112Y-120025438D02*
X130003731Y-120073057D01*
X130003731Y-120073057D02*
X130051350Y-120168295D01*
X130051350Y-120168295D02*
X130051350Y-120263533D01*
X130051350Y-120263533D02*
X130003731Y-120406390D01*
X130003731Y-120406390D02*
X129432303Y-120977819D01*
X129432303Y-120977819D02*
X130051350Y-120977819D01*
%TO.C,J3*%
X144545350Y-105074819D02*
X144545350Y-105789104D01*
X144545350Y-105789104D02*
X144497731Y-105931961D01*
X144497731Y-105931961D02*
X144402493Y-106027200D01*
X144402493Y-106027200D02*
X144259636Y-106074819D01*
X144259636Y-106074819D02*
X144164398Y-106074819D01*
X144926303Y-105074819D02*
X145545350Y-105074819D01*
X145545350Y-105074819D02*
X145212017Y-105455771D01*
X145212017Y-105455771D02*
X145354874Y-105455771D01*
X145354874Y-105455771D02*
X145450112Y-105503390D01*
X145450112Y-105503390D02*
X145497731Y-105551009D01*
X145497731Y-105551009D02*
X145545350Y-105646247D01*
X145545350Y-105646247D02*
X145545350Y-105884342D01*
X145545350Y-105884342D02*
X145497731Y-105979580D01*
X145497731Y-105979580D02*
X145450112Y-106027200D01*
X145450112Y-106027200D02*
X145354874Y-106074819D01*
X145354874Y-106074819D02*
X145069160Y-106074819D01*
X145069160Y-106074819D02*
X144973922Y-106027200D01*
X144973922Y-106027200D02*
X144926303Y-105979580D01*
%TO.C,C1*%
X126149580Y-116887982D02*
X126197200Y-116935601D01*
X126197200Y-116935601D02*
X126244819Y-117078458D01*
X126244819Y-117078458D02*
X126244819Y-117173696D01*
X126244819Y-117173696D02*
X126197200Y-117316553D01*
X126197200Y-117316553D02*
X126101961Y-117411791D01*
X126101961Y-117411791D02*
X126006723Y-117459410D01*
X126006723Y-117459410D02*
X125816247Y-117507029D01*
X125816247Y-117507029D02*
X125673390Y-117507029D01*
X125673390Y-117507029D02*
X125482914Y-117459410D01*
X125482914Y-117459410D02*
X125387676Y-117411791D01*
X125387676Y-117411791D02*
X125292438Y-117316553D01*
X125292438Y-117316553D02*
X125244819Y-117173696D01*
X125244819Y-117173696D02*
X125244819Y-117078458D01*
X125244819Y-117078458D02*
X125292438Y-116935601D01*
X125292438Y-116935601D02*
X125340057Y-116887982D01*
X126244819Y-115935601D02*
X126244819Y-116507029D01*
X126244819Y-116221315D02*
X125244819Y-116221315D01*
X125244819Y-116221315D02*
X125387676Y-116316553D01*
X125387676Y-116316553D02*
X125482914Y-116411791D01*
X125482914Y-116411791D02*
X125530533Y-116507029D01*
D11*
%TO.C,U1*%
X135636000Y-69596000D02*
X138684000Y-69596000D01*
X138684000Y-69596000D02*
X138684000Y-108204000D01*
X138684000Y-108204000D02*
X135636000Y-108204000D01*
X135636000Y-108204000D02*
X135636000Y-69596000D01*
X110236000Y-72390000D02*
X113284000Y-72390000D01*
X113284000Y-72390000D02*
X113284000Y-108204000D01*
X113284000Y-108204000D02*
X110236000Y-108204000D01*
X110236000Y-108204000D02*
X110236000Y-72390000D01*
X110871000Y-69596000D02*
G75*
G03*
X110236000Y-70231000I0J-635000D01*
G01*
X139700000Y-63500000D02*
X109220000Y-63500000D01*
X109220000Y-63500000D02*
X109220000Y-111760000D01*
X109220000Y-111760000D02*
X139700000Y-111760000D01*
X139700000Y-111760000D02*
X139700000Y-63500000D01*
D12*
%TO.C,J5*%
X105350000Y-107950000D02*
X105350000Y-105350000D01*
X108010000Y-105350000D02*
X105350000Y-105350000D01*
X108010000Y-107950000D02*
X105350000Y-107950000D01*
X108010000Y-107950000D02*
X108010000Y-105350000D01*
X108010000Y-109220000D02*
X108010000Y-110550000D01*
X108010000Y-110550000D02*
X106680000Y-110550000D01*
%TO.C,J1*%
X111417000Y-114316000D02*
X111417000Y-115616000D01*
X111717000Y-114616000D02*
X113717000Y-114616000D01*
X111717000Y-129116000D02*
X111717000Y-114616000D01*
X113117000Y-114316000D02*
X111417000Y-114316000D01*
X118917000Y-114616000D02*
X120917000Y-114616000D01*
X120917000Y-114616000D02*
X120917000Y-115916000D01*
X120917000Y-120516000D02*
X120917000Y-129116000D01*
X120917000Y-129116000D02*
X111717000Y-129116000D01*
%TO.C,J4*%
X121855000Y-79965000D02*
X123185000Y-79965000D01*
X121855000Y-81295000D02*
X121855000Y-79965000D01*
X121855000Y-82565000D02*
X121855000Y-100405000D01*
X121855000Y-82565000D02*
X124455000Y-82565000D01*
X121855000Y-100405000D02*
X127055000Y-100405000D01*
X124455000Y-79965000D02*
X127055000Y-79965000D01*
X124455000Y-82565000D02*
X124455000Y-79965000D01*
X127055000Y-79965000D02*
X127055000Y-100405000D01*
%TO.C,TP1*%
X143450000Y-100270000D02*
X144780000Y-100270000D01*
X143450000Y-101600000D02*
X143450000Y-100270000D01*
X143450000Y-102870000D02*
X143450000Y-102930000D01*
X143450000Y-102870000D02*
X146110000Y-102870000D01*
X143450000Y-102930000D02*
X146110000Y-102930000D01*
X146110000Y-102870000D02*
X146110000Y-102930000D01*
%TO.C,J2*%
X124206000Y-121793000D02*
X124206000Y-129413000D01*
X124206000Y-129413000D02*
X134366000Y-129413000D01*
X134366000Y-121793000D02*
X124206000Y-121793000D01*
X134366000Y-128143000D02*
X124206000Y-128143000D01*
X134366000Y-129413000D02*
X134366000Y-121793000D01*
%TO.C,J3*%
X146110000Y-109220000D02*
X146110000Y-121980000D01*
X143450000Y-121980000D02*
X146110000Y-121980000D01*
X143450000Y-109220000D02*
X146110000Y-109220000D01*
X143450000Y-109220000D02*
X143450000Y-121980000D01*
X143450000Y-107950000D02*
X143450000Y-106620000D01*
X143450000Y-106620000D02*
X144780000Y-106620000D01*
%TO.C,C1*%
X128065000Y-119624775D02*
X128065000Y-119124775D01*
X127815000Y-119374775D02*
X128315000Y-119374775D01*
X132160000Y-116820000D02*
G75*
G03*
X132160000Y-116820000I-2620000J0D01*
G01*
%TD*%
M02*
