%TF.GenerationSoftware,KiCad,Pcbnew,7.0.3*%
%TF.CreationDate,2023-06-24T17:47:24-04:00*%
%TF.ProjectId,ESP32-HUB75-Board,45535033-322d-4485-9542-37352d426f61,rev?*%
%TF.SameCoordinates,Original*%
%TF.FileFunction,Copper,L1,Top*%
%TF.FilePolarity,Positive*%
%FSLAX46Y46*%
G04 Gerber Fmt 4.6, Leading zero omitted, Abs format (unit mm)*
G04 Created by KiCad (PCBNEW 7.0.3) date 2023-06-24 17:47:24*
%MOMM*%
%LPD*%
G01*
G04 APERTURE LIST*
%TA.AperFunction,ComponentPad*%
%ADD10O,2.000000X1.200000*%
%TD*%
%TA.AperFunction,ComponentPad*%
%ADD11O,1.700000X1.700000*%
%TD*%
%TA.AperFunction,ComponentPad*%
%ADD12R,1.700000X1.700000*%
%TD*%
%TA.AperFunction,ComponentPad*%
%ADD13R,4.600000X2.000000*%
%TD*%
%TA.AperFunction,ComponentPad*%
%ADD14O,4.200000X2.000000*%
%TD*%
%TA.AperFunction,ComponentPad*%
%ADD15O,2.000000X4.200000*%
%TD*%
%TA.AperFunction,ComponentPad*%
%ADD16R,3.000000X3.000000*%
%TD*%
%TA.AperFunction,ComponentPad*%
%ADD17C,3.000000*%
%TD*%
%TA.AperFunction,ComponentPad*%
%ADD18R,1.600000X1.600000*%
%TD*%
%TA.AperFunction,ComponentPad*%
%ADD19C,1.600000*%
%TD*%
%TA.AperFunction,ViaPad*%
%ADD20C,0.800000*%
%TD*%
%TA.AperFunction,Conductor*%
%ADD21C,0.500000*%
%TD*%
%TA.AperFunction,Conductor*%
%ADD22C,0.250000*%
%TD*%
G04 APERTURE END LIST*
D10*
%TO.P,U1,1,RESET*%
%TO.N,unconnected-(U1-RESET-Pad1)*%
X111760000Y-71120000D03*
%TO.P,U1,2,GP36*%
%TO.N,unconnected-(U1-GP36-Pad2)*%
X111760000Y-73660000D03*
%TO.P,U1,3,GP39*%
%TO.N,unconnected-(U1-GP39-Pad3)*%
X111760000Y-76200000D03*
%TO.P,U1,4,GP34*%
%TO.N,unconnected-(U1-GP34-Pad4)*%
X111760000Y-78740000D03*
%TO.P,U1,5,GP35*%
%TO.N,unconnected-(U1-GP35-Pad5)*%
X111760000Y-81280000D03*
%TO.P,U1,6,GP32*%
%TO.N,/MXR1*%
X111760000Y-83820000D03*
%TO.P,U1,7,GP33*%
%TO.N,/MXB1*%
X111760000Y-86360000D03*
%TO.P,U1,8,GP25*%
%TO.N,/MXR2*%
X111760000Y-88900000D03*
%TO.P,U1,9,GP26*%
%TO.N,/MXB2*%
X111760000Y-91440000D03*
%TO.P,U1,10,GP27*%
%TO.N,/MX_A*%
X111760000Y-93980000D03*
%TO.P,U1,11,GP14*%
%TO.N,/MX_C*%
X111760000Y-96520000D03*
%TO.P,U1,12,GP12*%
%TO.N,/MX_CLK*%
X111760000Y-99060000D03*
%TO.P,U1,13,GP13*%
%TO.N,/MX_OE*%
X111760000Y-101600000D03*
%TO.P,U1,14,GND*%
%TO.N,GND*%
X111760000Y-104140000D03*
%TO.P,U1,15,VCC*%
%TO.N,VCC*%
X111760000Y-106680000D03*
%TO.P,U1,16,3V3*%
%TO.N,+3V3*%
X137160000Y-106680000D03*
%TO.P,U1,17,GND*%
%TO.N,GND*%
X137160000Y-104140000D03*
%TO.P,U1,18,GP15*%
%TO.N,Net-(U1-GP15)*%
X137160000Y-101600000D03*
%TO.P,U1,19,GP2*%
%TO.N,/MX_LAT*%
X137160000Y-99060000D03*
%TO.P,U1,20,GP4*%
%TO.N,/MX_D*%
X137160000Y-96520000D03*
%TO.P,U1,21,GP16*%
%TO.N,/MX_B*%
X137160000Y-93980000D03*
%TO.P,U1,22,GP17*%
%TO.N,/MX_E*%
X137160000Y-91440000D03*
%TO.P,U1,23,GP5*%
%TO.N,/VSPI_CS0*%
X137160000Y-88900000D03*
%TO.P,U1,24,GP18*%
%TO.N,/VSPI_SCLK*%
X137160000Y-86360000D03*
%TO.P,U1,25,GP19*%
%TO.N,/VSPI_MISO*%
X137160000Y-83820000D03*
%TO.P,U1,26,GP21*%
%TO.N,/MXG2*%
X137160000Y-81280000D03*
%TO.P,U1,27,GP3*%
%TO.N,unconnected-(U1-GP3-Pad27)*%
X137160000Y-78740000D03*
%TO.P,U1,28,GP1*%
%TO.N,unconnected-(U1-GP1-Pad28)*%
X137160000Y-76200000D03*
%TO.P,U1,29,GP22*%
%TO.N,/MXG1*%
X137160000Y-73660000D03*
%TO.P,U1,30,GP23*%
%TO.N,/VSPI_MOSI*%
X137160000Y-71120000D03*
%TD*%
D11*
%TO.P,J5,2,Pin_2*%
%TO.N,VCC*%
X106680000Y-106680000D03*
D12*
%TO.P,J5,1,Pin_1*%
%TO.N,+5V*%
X106680000Y-109220000D03*
%TD*%
D13*
%TO.P,J1,1*%
%TO.N,+5V*%
X116317000Y-115316000D03*
D14*
%TO.P,J1,2*%
%TO.N,GND*%
X116317000Y-121616000D03*
D15*
%TO.P,J1,3*%
%TO.N,unconnected-(J1-Pad3)*%
X121117000Y-118216000D03*
%TD*%
D12*
%TO.P,J4,1,Pin_1*%
%TO.N,/MXR1*%
X123185000Y-81295000D03*
D11*
%TO.P,J4,2,Pin_2*%
%TO.N,/MXG1*%
X125725000Y-81295000D03*
%TO.P,J4,3,Pin_3*%
%TO.N,/MXB1*%
X123185000Y-83835000D03*
%TO.P,J4,4,Pin_4*%
%TO.N,GND*%
X125725000Y-83835000D03*
%TO.P,J4,5,Pin_5*%
%TO.N,/MXR2*%
X123185000Y-86375000D03*
%TO.P,J4,6,Pin_6*%
%TO.N,/MXG2*%
X125725000Y-86375000D03*
%TO.P,J4,7,Pin_7*%
%TO.N,/MXB2*%
X123185000Y-88915000D03*
%TO.P,J4,8,Pin_8*%
%TO.N,/MX_E*%
X125725000Y-88915000D03*
%TO.P,J4,9,Pin_9*%
%TO.N,/MX_A*%
X123185000Y-91455000D03*
%TO.P,J4,10,Pin_10*%
%TO.N,/MX_B*%
X125725000Y-91455000D03*
%TO.P,J4,11,Pin_11*%
%TO.N,/MX_C*%
X123185000Y-93995000D03*
%TO.P,J4,12,Pin_12*%
%TO.N,/MX_D*%
X125725000Y-93995000D03*
%TO.P,J4,13,Pin_13*%
%TO.N,/MX_CLK*%
X123185000Y-96535000D03*
%TO.P,J4,14,Pin_14*%
%TO.N,/MX_LAT*%
X125725000Y-96535000D03*
%TO.P,J4,15,Pin_15*%
%TO.N,/MX_OE*%
X123185000Y-99075000D03*
%TO.P,J4,16,Pin_16*%
%TO.N,GND*%
X125725000Y-99075000D03*
%TD*%
D12*
%TO.P,TP1,1,1*%
%TO.N,Net-(U1-GP15)*%
X144780000Y-101600000D03*
%TD*%
D16*
%TO.P,J2,1,Pin_1*%
%TO.N,+5V*%
X126746000Y-125603000D03*
D17*
%TO.P,J2,2,Pin_2*%
%TO.N,GND*%
X131826000Y-125603000D03*
%TD*%
D11*
%TO.P,J3,6,Pin_6*%
%TO.N,GND*%
X144780000Y-120650000D03*
%TO.P,J3,5,Pin_5*%
%TO.N,/VSPI_MISO*%
X144780000Y-118110000D03*
%TO.P,J3,4,Pin_4*%
%TO.N,/VSPI_SCLK*%
X144780000Y-115570000D03*
%TO.P,J3,3,Pin_3*%
%TO.N,/VSPI_MOSI*%
X144780000Y-113030000D03*
%TO.P,J3,2,Pin_2*%
%TO.N,/VSPI_CS0*%
X144780000Y-110490000D03*
D12*
%TO.P,J3,1,Pin_1*%
%TO.N,+3V3*%
X144780000Y-107950000D03*
%TD*%
D18*
%TO.P,C1,1*%
%TO.N,+5V*%
X129540000Y-118070000D03*
D19*
%TO.P,C1,2*%
%TO.N,GND*%
X129540000Y-115570000D03*
%TD*%
D20*
%TO.N,/VSPI_CS0*%
X139065000Y-109220000D03*
%TO.N,/VSPI_MISO*%
X142240000Y-113030000D03*
%TD*%
D21*
%TO.N,+5V*%
X129540000Y-118070000D02*
X129540000Y-122809000D01*
X129540000Y-122809000D02*
X126746000Y-125603000D01*
X116317000Y-115316000D02*
X126786000Y-115316000D01*
X126786000Y-115316000D02*
X129540000Y-118070000D01*
X116317000Y-115316000D02*
X112776000Y-115316000D01*
X112776000Y-115316000D02*
X106680000Y-109220000D01*
D22*
%TO.N,/VSPI_CS0*%
X139065000Y-109220000D02*
X140335000Y-110490000D01*
X140335000Y-110490000D02*
X144780000Y-110490000D01*
%TO.N,/VSPI_MISO*%
X142240000Y-113030000D02*
X142240000Y-115570000D01*
X142240000Y-115570000D02*
X144780000Y-118110000D01*
%TO.N,Net-(U1-GP15)*%
X137160000Y-101600000D02*
X144780000Y-101600000D01*
D21*
%TO.N,+3V3*%
X137160000Y-106680000D02*
X143510000Y-106680000D01*
X143510000Y-106680000D02*
X144780000Y-107950000D01*
%TO.N,VCC*%
X106680000Y-106680000D02*
X111760000Y-106680000D01*
%TD*%
%TA.AperFunction,Conductor*%
%TO.N,GND*%
G36*
X144781736Y-62230598D02*
G01*
X144816351Y-62232541D01*
X144895549Y-62236989D01*
X145067691Y-62247401D01*
X145074299Y-62248161D01*
X145210416Y-62271288D01*
X145359232Y-62298561D01*
X145365198Y-62299963D01*
X145501426Y-62339209D01*
X145502624Y-62339569D01*
X145642830Y-62383259D01*
X145648092Y-62385164D01*
X145780617Y-62440058D01*
X145782227Y-62440754D01*
X145914609Y-62500334D01*
X145919147Y-62502605D01*
X146045385Y-62572374D01*
X146047451Y-62573568D01*
X146091408Y-62600141D01*
X146170934Y-62648217D01*
X146174738Y-62650711D01*
X146292726Y-62734427D01*
X146295072Y-62736176D01*
X146390416Y-62810874D01*
X146408332Y-62824910D01*
X146411409Y-62827486D01*
X146519430Y-62924018D01*
X146521957Y-62926408D01*
X146623590Y-63028041D01*
X146625980Y-63030568D01*
X146722512Y-63138589D01*
X146725088Y-63141666D01*
X146813811Y-63254912D01*
X146815571Y-63257272D01*
X146899287Y-63375260D01*
X146901781Y-63379064D01*
X146976419Y-63502528D01*
X146977624Y-63504613D01*
X147047393Y-63630851D01*
X147049668Y-63635398D01*
X147109216Y-63767707D01*
X147109959Y-63769426D01*
X147164831Y-63901899D01*
X147166744Y-63907183D01*
X147210413Y-64047322D01*
X147210798Y-64048604D01*
X147250032Y-64184789D01*
X147251440Y-64190780D01*
X147278722Y-64339655D01*
X147301835Y-64475683D01*
X147302599Y-64482330D01*
X147313013Y-64654508D01*
X147319402Y-64768263D01*
X147319500Y-64771740D01*
X147319500Y-126998259D01*
X147319402Y-127001736D01*
X147313013Y-127115490D01*
X147302599Y-127287668D01*
X147301835Y-127294315D01*
X147278722Y-127430343D01*
X147251440Y-127579218D01*
X147250032Y-127585209D01*
X147210798Y-127721394D01*
X147210413Y-127722676D01*
X147166744Y-127862815D01*
X147164831Y-127868099D01*
X147109959Y-128000572D01*
X147109216Y-128002291D01*
X147049668Y-128134600D01*
X147047393Y-128139147D01*
X146977624Y-128265385D01*
X146976419Y-128267470D01*
X146901781Y-128390934D01*
X146899287Y-128394738D01*
X146815571Y-128512726D01*
X146813811Y-128515086D01*
X146725088Y-128628332D01*
X146722512Y-128631409D01*
X146625980Y-128739430D01*
X146623590Y-128741957D01*
X146521957Y-128843590D01*
X146519430Y-128845980D01*
X146411409Y-128942512D01*
X146408332Y-128945088D01*
X146295086Y-129033811D01*
X146292726Y-129035571D01*
X146174738Y-129119287D01*
X146170934Y-129121781D01*
X146047470Y-129196419D01*
X146045385Y-129197624D01*
X145919147Y-129267393D01*
X145914600Y-129269668D01*
X145782291Y-129329216D01*
X145780572Y-129329959D01*
X145648099Y-129384831D01*
X145642815Y-129386744D01*
X145502676Y-129430413D01*
X145501394Y-129430798D01*
X145365209Y-129470032D01*
X145359218Y-129471440D01*
X145210343Y-129498722D01*
X145074315Y-129521835D01*
X145067668Y-129522599D01*
X144895490Y-129533013D01*
X144781736Y-129539402D01*
X144778259Y-129539500D01*
X104141741Y-129539500D01*
X104138264Y-129539402D01*
X104024508Y-129533013D01*
X103852330Y-129522599D01*
X103845683Y-129521835D01*
X103709655Y-129498722D01*
X103560780Y-129471440D01*
X103554789Y-129470032D01*
X103418604Y-129430798D01*
X103417322Y-129430413D01*
X103277183Y-129386744D01*
X103271899Y-129384831D01*
X103139426Y-129329959D01*
X103137707Y-129329216D01*
X103005398Y-129269668D01*
X103000851Y-129267393D01*
X102874613Y-129197624D01*
X102872528Y-129196419D01*
X102749064Y-129121781D01*
X102745260Y-129119287D01*
X102627272Y-129035571D01*
X102624912Y-129033811D01*
X102511666Y-128945088D01*
X102508589Y-128942512D01*
X102400568Y-128845980D01*
X102398041Y-128843590D01*
X102296408Y-128741957D01*
X102294018Y-128739430D01*
X102197486Y-128631409D01*
X102194910Y-128628332D01*
X102180874Y-128610416D01*
X102106176Y-128515072D01*
X102104427Y-128512726D01*
X102020711Y-128394738D01*
X102018217Y-128390934D01*
X101970141Y-128311408D01*
X101943568Y-128267451D01*
X101942374Y-128265385D01*
X101872605Y-128139147D01*
X101870330Y-128134600D01*
X101810754Y-128002227D01*
X101810058Y-128000617D01*
X101755164Y-127868092D01*
X101753259Y-127862830D01*
X101709569Y-127722624D01*
X101709200Y-127721394D01*
X101696651Y-127677834D01*
X101669963Y-127585198D01*
X101668561Y-127579232D01*
X101641288Y-127430416D01*
X101618161Y-127294299D01*
X101617401Y-127287691D01*
X101606991Y-127115584D01*
X101600596Y-127001718D01*
X101600547Y-127000000D01*
X102784341Y-127000000D01*
X102804936Y-127235403D01*
X102804938Y-127235413D01*
X102866094Y-127463655D01*
X102866096Y-127463659D01*
X102866097Y-127463663D01*
X102916030Y-127570746D01*
X102965964Y-127677828D01*
X102965965Y-127677830D01*
X103101505Y-127871402D01*
X103268597Y-128038494D01*
X103462169Y-128174034D01*
X103462171Y-128174035D01*
X103676337Y-128273903D01*
X103904592Y-128335063D01*
X104081032Y-128350499D01*
X104081033Y-128350500D01*
X104081034Y-128350500D01*
X104198967Y-128350500D01*
X104198967Y-128350499D01*
X104375408Y-128335063D01*
X104603663Y-128273903D01*
X104817829Y-128174035D01*
X105011401Y-128038495D01*
X105178495Y-127871401D01*
X105314035Y-127677830D01*
X105413903Y-127463663D01*
X105475063Y-127235408D01*
X105495659Y-127000000D01*
X105475063Y-126764592D01*
X105413903Y-126536337D01*
X105314035Y-126322171D01*
X105314034Y-126322169D01*
X105178494Y-126128597D01*
X105011402Y-125961505D01*
X104817830Y-125825965D01*
X104817828Y-125825964D01*
X104710746Y-125776031D01*
X104603663Y-125726097D01*
X104603659Y-125726096D01*
X104603655Y-125726094D01*
X104375413Y-125664938D01*
X104375403Y-125664936D01*
X104198967Y-125649500D01*
X104198966Y-125649500D01*
X104081034Y-125649500D01*
X104081033Y-125649500D01*
X103904596Y-125664936D01*
X103904586Y-125664938D01*
X103676344Y-125726094D01*
X103676335Y-125726098D01*
X103462171Y-125825964D01*
X103462169Y-125825965D01*
X103268597Y-125961505D01*
X103101506Y-126128597D01*
X103101501Y-126128604D01*
X102965967Y-126322165D01*
X102965965Y-126322169D01*
X102866098Y-126536335D01*
X102866094Y-126536344D01*
X102804938Y-126764586D01*
X102804936Y-126764596D01*
X102784341Y-126999999D01*
X102784341Y-127000000D01*
X101600547Y-127000000D01*
X101600499Y-126998294D01*
X101600499Y-121365999D01*
X113737976Y-121365999D01*
X113737978Y-121366000D01*
X114783314Y-121366000D01*
X114757507Y-121406156D01*
X114717000Y-121544111D01*
X114717000Y-121687889D01*
X114757507Y-121825844D01*
X114783314Y-121866000D01*
X113737977Y-121866000D01*
X113757916Y-121985492D01*
X113838630Y-122220603D01*
X113838635Y-122220614D01*
X113956942Y-122439228D01*
X113956948Y-122439237D01*
X114109626Y-122635397D01*
X114109635Y-122635407D01*
X114292522Y-122803767D01*
X114292521Y-122803767D01*
X114500632Y-122939732D01*
X114728282Y-123039587D01*
X114969261Y-123100612D01*
X114969269Y-123100614D01*
X115154945Y-123115999D01*
X115154961Y-123116000D01*
X116066999Y-123116000D01*
X116067000Y-122116000D01*
X116567000Y-122116000D01*
X116567000Y-123116000D01*
X117479039Y-123116000D01*
X117479054Y-123115999D01*
X117664730Y-123100614D01*
X117664738Y-123100612D01*
X117905717Y-123039587D01*
X118133367Y-122939732D01*
X118341478Y-122803767D01*
X118524364Y-122635407D01*
X118524373Y-122635397D01*
X118677051Y-122439237D01*
X118677057Y-122439228D01*
X118795364Y-122220614D01*
X118795369Y-122220603D01*
X118876083Y-121985492D01*
X118896023Y-121866000D01*
X117850686Y-121866000D01*
X117876493Y-121825844D01*
X117917000Y-121687889D01*
X117917000Y-121544111D01*
X117876493Y-121406156D01*
X117850686Y-121366000D01*
X118896022Y-121366000D01*
X118896023Y-121365999D01*
X118876083Y-121246507D01*
X118795369Y-121011396D01*
X118795364Y-121011385D01*
X118677057Y-120792771D01*
X118677051Y-120792762D01*
X118524373Y-120596602D01*
X118524364Y-120596592D01*
X118341477Y-120428232D01*
X118341478Y-120428232D01*
X118133367Y-120292267D01*
X117905717Y-120192412D01*
X117664738Y-120131387D01*
X117664730Y-120131385D01*
X117479054Y-120116000D01*
X116567000Y-120116000D01*
X116567000Y-121116000D01*
X116066999Y-121116000D01*
X116067000Y-120116000D01*
X115154945Y-120116000D01*
X114969269Y-120131385D01*
X114969261Y-120131387D01*
X114728282Y-120192412D01*
X114500632Y-120292267D01*
X114292521Y-120428232D01*
X114109635Y-120596592D01*
X114109626Y-120596602D01*
X113956948Y-120792762D01*
X113956942Y-120792771D01*
X113838635Y-121011385D01*
X113838630Y-121011396D01*
X113757916Y-121246507D01*
X113737976Y-121365999D01*
X101600499Y-121365999D01*
X101600499Y-106680000D01*
X105324341Y-106680000D01*
X105344936Y-106915403D01*
X105344938Y-106915413D01*
X105406094Y-107143655D01*
X105406096Y-107143659D01*
X105406097Y-107143663D01*
X105488909Y-107321253D01*
X105505965Y-107357830D01*
X105505967Y-107357834D01*
X105641501Y-107551395D01*
X105641506Y-107551402D01*
X105763430Y-107673326D01*
X105796915Y-107734649D01*
X105791931Y-107804341D01*
X105750059Y-107860274D01*
X105719083Y-107877189D01*
X105587669Y-107926203D01*
X105587664Y-107926206D01*
X105472455Y-108012452D01*
X105472452Y-108012455D01*
X105386206Y-108127664D01*
X105386202Y-108127671D01*
X105335908Y-108262517D01*
X105329782Y-108319500D01*
X105329501Y-108322123D01*
X105329500Y-108322135D01*
X105329500Y-110117870D01*
X105329501Y-110117876D01*
X105335908Y-110177483D01*
X105386202Y-110312328D01*
X105386206Y-110312335D01*
X105472452Y-110427544D01*
X105472455Y-110427547D01*
X105587664Y-110513793D01*
X105587671Y-110513797D01*
X105632618Y-110530560D01*
X105722517Y-110564091D01*
X105782127Y-110570500D01*
X106174675Y-110570499D01*
X106228175Y-110582634D01*
X107652438Y-111263803D01*
X107686619Y-111287987D01*
X112200270Y-115801638D01*
X112212051Y-115815270D01*
X112226388Y-115834528D01*
X112266409Y-115868111D01*
X112270397Y-115871766D01*
X112276220Y-115877589D01*
X112301242Y-115897373D01*
X112302641Y-115898512D01*
X112338850Y-115928895D01*
X112363176Y-115956405D01*
X112366888Y-115962128D01*
X112370654Y-115967934D01*
X112470995Y-116071052D01*
X113588619Y-116931747D01*
X113614339Y-116949149D01*
X113630178Y-116958502D01*
X113630181Y-116958503D01*
X113630184Y-116958505D01*
X113736153Y-117005631D01*
X113736154Y-117005631D01*
X113736156Y-117005632D01*
X113878184Y-117028649D01*
X113887137Y-117028809D01*
X113941204Y-117026880D01*
X114081230Y-116993797D01*
X114510021Y-116825106D01*
X114555417Y-116816499D01*
X117648113Y-116816499D01*
X117697536Y-116826773D01*
X118297808Y-117087648D01*
X118329705Y-117099038D01*
X118329717Y-117099041D01*
X118329716Y-117099041D01*
X118329722Y-117099043D01*
X118340355Y-117102054D01*
X118349006Y-117104505D01*
X118469153Y-117123332D01*
X118612196Y-117107831D01*
X118620871Y-117105609D01*
X118672523Y-117089386D01*
X118798742Y-117020317D01*
X119498910Y-116495191D01*
X119564352Y-116470715D01*
X119632639Y-116485505D01*
X119682089Y-116534866D01*
X119697002Y-116603125D01*
X119693516Y-116624831D01*
X119631892Y-116868175D01*
X119631890Y-116868186D01*
X119616500Y-117053922D01*
X119616500Y-119378077D01*
X119631890Y-119563813D01*
X119631892Y-119563824D01*
X119692936Y-119804881D01*
X119792826Y-120032606D01*
X119928833Y-120240782D01*
X119928836Y-120240785D01*
X120097256Y-120423738D01*
X120293491Y-120576474D01*
X120512190Y-120694828D01*
X120747386Y-120775571D01*
X120992665Y-120816500D01*
X121241335Y-120816500D01*
X121486614Y-120775571D01*
X121721810Y-120694828D01*
X121940509Y-120576474D01*
X122136744Y-120423738D01*
X122305164Y-120240785D01*
X122441173Y-120032607D01*
X122541063Y-119804881D01*
X122602108Y-119563821D01*
X122617500Y-119378067D01*
X122617500Y-117053933D01*
X122609593Y-116958505D01*
X122602109Y-116868186D01*
X122602107Y-116868175D01*
X122541063Y-116627118D01*
X122441173Y-116399393D01*
X122349007Y-116258321D01*
X122328819Y-116191432D01*
X122348000Y-116124246D01*
X122400459Y-116078096D01*
X122452816Y-116066500D01*
X126423770Y-116066500D01*
X126490809Y-116086185D01*
X126511451Y-116102819D01*
X127558975Y-117150343D01*
X127582716Y-117183608D01*
X128226922Y-118502696D01*
X128239500Y-118557112D01*
X128239500Y-118917869D01*
X128239501Y-118917876D01*
X128245908Y-118977483D01*
X128257944Y-119009753D01*
X128259719Y-119015293D01*
X128265146Y-119035437D01*
X128273392Y-119052102D01*
X128275915Y-119057935D01*
X128296204Y-119112332D01*
X128309999Y-119130759D01*
X128321872Y-119150079D01*
X128328953Y-119164390D01*
X128328955Y-119164394D01*
X128767680Y-119802538D01*
X128789439Y-119868934D01*
X128789499Y-119872788D01*
X128789500Y-122446769D01*
X128769815Y-122513808D01*
X128753181Y-122534450D01*
X128068066Y-123219564D01*
X128031697Y-123244768D01*
X127269141Y-123591385D01*
X127217829Y-123602500D01*
X125198129Y-123602500D01*
X125198123Y-123602501D01*
X125138516Y-123608908D01*
X125003671Y-123659202D01*
X125003664Y-123659206D01*
X124888455Y-123745452D01*
X124888452Y-123745455D01*
X124802206Y-123860664D01*
X124802202Y-123860671D01*
X124751908Y-123995517D01*
X124745501Y-124055116D01*
X124745500Y-124055135D01*
X124745500Y-127150870D01*
X124745501Y-127150876D01*
X124751908Y-127210483D01*
X124802202Y-127345328D01*
X124802206Y-127345335D01*
X124888452Y-127460544D01*
X124888455Y-127460547D01*
X125003664Y-127546793D01*
X125003671Y-127546797D01*
X125138517Y-127597091D01*
X125138516Y-127597091D01*
X125145444Y-127597835D01*
X125198127Y-127603500D01*
X128293872Y-127603499D01*
X128353483Y-127597091D01*
X128488331Y-127546796D01*
X128603546Y-127460546D01*
X128689796Y-127345331D01*
X128740091Y-127210483D01*
X128746500Y-127150873D01*
X128746499Y-126144181D01*
X128766183Y-126077143D01*
X128799592Y-126042455D01*
X128841510Y-126013239D01*
X128848053Y-126007125D01*
X128885541Y-125968134D01*
X128963114Y-125846956D01*
X129074003Y-125603001D01*
X129820891Y-125603001D01*
X129841300Y-125888362D01*
X129902109Y-126167895D01*
X130002091Y-126435958D01*
X130139191Y-126687038D01*
X130139196Y-126687046D01*
X130245882Y-126829561D01*
X130245883Y-126829562D01*
X131141195Y-125934250D01*
X131163340Y-125985587D01*
X131269433Y-126128094D01*
X131405530Y-126242294D01*
X131495216Y-126287335D01*
X130599436Y-127183115D01*
X130741960Y-127289807D01*
X130741961Y-127289808D01*
X130993042Y-127426908D01*
X130993041Y-127426908D01*
X131261104Y-127526890D01*
X131540637Y-127587699D01*
X131825999Y-127608109D01*
X131826001Y-127608109D01*
X132111362Y-127587699D01*
X132390895Y-127526890D01*
X132658958Y-127426908D01*
X132910047Y-127289803D01*
X133052561Y-127183116D01*
X133052562Y-127183115D01*
X132869447Y-127000000D01*
X143424341Y-127000000D01*
X143444936Y-127235403D01*
X143444938Y-127235413D01*
X143506094Y-127463655D01*
X143506096Y-127463659D01*
X143506097Y-127463663D01*
X143556030Y-127570746D01*
X143605964Y-127677828D01*
X143605965Y-127677830D01*
X143741505Y-127871402D01*
X143908597Y-128038494D01*
X144102169Y-128174034D01*
X144102171Y-128174035D01*
X144316337Y-128273903D01*
X144544592Y-128335063D01*
X144721032Y-128350499D01*
X144721033Y-128350500D01*
X144721034Y-128350500D01*
X144838967Y-128350500D01*
X144838967Y-128350499D01*
X145015408Y-128335063D01*
X145243663Y-128273903D01*
X145457829Y-128174035D01*
X145651401Y-128038495D01*
X145818495Y-127871401D01*
X145954035Y-127677830D01*
X146053903Y-127463663D01*
X146115063Y-127235408D01*
X146135659Y-127000000D01*
X146115063Y-126764592D01*
X146053903Y-126536337D01*
X145954035Y-126322171D01*
X145954034Y-126322169D01*
X145818494Y-126128597D01*
X145651402Y-125961505D01*
X145457830Y-125825965D01*
X145457828Y-125825964D01*
X145350746Y-125776031D01*
X145243663Y-125726097D01*
X145243659Y-125726096D01*
X145243655Y-125726094D01*
X145015413Y-125664938D01*
X145015403Y-125664936D01*
X144838967Y-125649500D01*
X144838966Y-125649500D01*
X144721034Y-125649500D01*
X144721033Y-125649500D01*
X144544596Y-125664936D01*
X144544586Y-125664938D01*
X144316344Y-125726094D01*
X144316335Y-125726098D01*
X144102171Y-125825964D01*
X144102169Y-125825965D01*
X143908597Y-125961505D01*
X143741506Y-126128597D01*
X143741501Y-126128604D01*
X143605967Y-126322165D01*
X143605965Y-126322169D01*
X143506098Y-126536335D01*
X143506094Y-126536344D01*
X143444938Y-126764586D01*
X143444936Y-126764596D01*
X143424341Y-126999999D01*
X143424341Y-127000000D01*
X132869447Y-127000000D01*
X132159748Y-126290300D01*
X132169409Y-126286784D01*
X132317844Y-126189157D01*
X132439764Y-126059930D01*
X132511768Y-125935215D01*
X133406115Y-126829562D01*
X133406116Y-126829561D01*
X133512803Y-126687047D01*
X133649908Y-126435958D01*
X133749890Y-126167895D01*
X133810699Y-125888362D01*
X133831108Y-125603001D01*
X133831108Y-125602998D01*
X133810699Y-125317637D01*
X133749890Y-125038104D01*
X133649908Y-124770041D01*
X133512808Y-124518961D01*
X133512807Y-124518960D01*
X133406115Y-124376436D01*
X132510803Y-125271747D01*
X132488660Y-125220413D01*
X132382567Y-125077906D01*
X132246470Y-124963706D01*
X132156782Y-124918663D01*
X133052562Y-124022883D01*
X133052561Y-124022882D01*
X132910046Y-123916196D01*
X132910038Y-123916191D01*
X132658957Y-123779091D01*
X132658958Y-123779091D01*
X132390895Y-123679109D01*
X132111362Y-123618300D01*
X131826001Y-123597891D01*
X131825999Y-123597891D01*
X131540637Y-123618300D01*
X131261104Y-123679109D01*
X130993041Y-123779091D01*
X130741961Y-123916191D01*
X130741953Y-123916196D01*
X130599437Y-124022882D01*
X130599436Y-124022883D01*
X131492252Y-124915699D01*
X131482591Y-124919216D01*
X131334156Y-125016843D01*
X131212236Y-125146070D01*
X131140231Y-125270784D01*
X130245883Y-124376436D01*
X130245882Y-124376437D01*
X130139196Y-124518953D01*
X130139191Y-124518961D01*
X130002091Y-124770041D01*
X129902109Y-125038104D01*
X129841300Y-125317637D01*
X129820891Y-125602998D01*
X129820891Y-125603001D01*
X129074003Y-125603001D01*
X129840718Y-123916228D01*
X129874562Y-123814104D01*
X129875611Y-123809263D01*
X129879047Y-123791952D01*
X129884179Y-123648164D01*
X129876839Y-123619408D01*
X129879330Y-123549586D01*
X129909303Y-123501062D01*
X130025638Y-123384727D01*
X130039267Y-123372950D01*
X130058530Y-123358610D01*
X130058532Y-123358606D01*
X130058534Y-123358606D01*
X130076663Y-123336999D01*
X130092113Y-123318585D01*
X130095767Y-123314599D01*
X130101591Y-123308776D01*
X130121400Y-123283721D01*
X130122476Y-123282401D01*
X130171302Y-123224214D01*
X130171304Y-123224209D01*
X130175274Y-123218175D01*
X130175325Y-123218208D01*
X130179372Y-123211856D01*
X130179320Y-123211824D01*
X130183111Y-123205677D01*
X130183110Y-123205676D01*
X130215226Y-123136804D01*
X130215952Y-123135305D01*
X130250040Y-123067433D01*
X130250043Y-123067417D01*
X130252509Y-123060646D01*
X130252567Y-123060667D01*
X130255043Y-123053546D01*
X130254986Y-123053527D01*
X130257255Y-123046678D01*
X130257255Y-123046676D01*
X130257257Y-123046673D01*
X130272611Y-122972304D01*
X130273003Y-122970541D01*
X130280306Y-122939732D01*
X130290500Y-122896721D01*
X130290500Y-122896720D01*
X130290501Y-122896716D01*
X130291339Y-122889548D01*
X130291398Y-122889554D01*
X130292164Y-122882054D01*
X130292105Y-122882049D01*
X130292734Y-122874859D01*
X130290526Y-122798967D01*
X130290500Y-122797164D01*
X130290500Y-119872788D01*
X130310185Y-119805749D01*
X130312319Y-119802538D01*
X130328552Y-119778926D01*
X130751043Y-119164394D01*
X130755345Y-119158035D01*
X130760108Y-119148027D01*
X130772800Y-119127018D01*
X130783796Y-119112331D01*
X130807080Y-119049900D01*
X130809179Y-119044946D01*
X130817188Y-119028124D01*
X130819247Y-119021503D01*
X130821402Y-119012703D01*
X130823522Y-119005817D01*
X130834091Y-118977483D01*
X130840500Y-118917873D01*
X130840499Y-117222128D01*
X130834091Y-117162517D01*
X130829550Y-117150343D01*
X130783797Y-117027671D01*
X130783793Y-117027664D01*
X130697547Y-116912455D01*
X130697544Y-116912452D01*
X130582335Y-116826206D01*
X130582328Y-116826202D01*
X130447482Y-116775908D01*
X130447483Y-116775908D01*
X130387883Y-116769501D01*
X130387881Y-116769500D01*
X130387873Y-116769500D01*
X130387864Y-116769500D01*
X130384548Y-116769322D01*
X130384627Y-116767847D01*
X130323215Y-116749815D01*
X130277460Y-116697011D01*
X130269969Y-116653522D01*
X129584400Y-115967953D01*
X129665148Y-115955165D01*
X129778045Y-115897641D01*
X129867641Y-115808045D01*
X129925165Y-115695148D01*
X129937953Y-115614400D01*
X130619025Y-116295472D01*
X130670136Y-116222478D01*
X130766264Y-116016331D01*
X130766269Y-116016317D01*
X130825139Y-115796610D01*
X130825141Y-115796599D01*
X130844966Y-115570002D01*
X130844966Y-115569997D01*
X130825141Y-115343400D01*
X130825139Y-115343389D01*
X130766269Y-115123682D01*
X130766265Y-115123673D01*
X130670133Y-114917516D01*
X130670131Y-114917512D01*
X130619026Y-114844526D01*
X130619025Y-114844526D01*
X129937953Y-115525598D01*
X129925165Y-115444852D01*
X129867641Y-115331955D01*
X129778045Y-115242359D01*
X129665148Y-115184835D01*
X129584400Y-115172046D01*
X130265472Y-114490974D01*
X130265471Y-114490973D01*
X130192483Y-114439866D01*
X130192481Y-114439865D01*
X129986326Y-114343734D01*
X129986317Y-114343730D01*
X129766610Y-114284860D01*
X129766599Y-114284858D01*
X129540002Y-114265034D01*
X129539998Y-114265034D01*
X129313400Y-114284858D01*
X129313389Y-114284860D01*
X129093682Y-114343730D01*
X129093673Y-114343734D01*
X128887513Y-114439868D01*
X128814527Y-114490972D01*
X128814526Y-114490973D01*
X129495600Y-115172046D01*
X129414852Y-115184835D01*
X129301955Y-115242359D01*
X129212359Y-115331955D01*
X129154835Y-115444852D01*
X129142046Y-115525599D01*
X128460973Y-114844526D01*
X128409868Y-114917513D01*
X128313734Y-115123673D01*
X128313730Y-115123682D01*
X128254860Y-115343389D01*
X128254858Y-115343399D01*
X128247456Y-115428006D01*
X128222003Y-115493075D01*
X128165412Y-115534053D01*
X128095650Y-115537931D01*
X128036247Y-115504879D01*
X127361729Y-114830361D01*
X127349949Y-114816730D01*
X127342482Y-114806701D01*
X127335612Y-114797472D01*
X127335610Y-114797470D01*
X127295587Y-114763886D01*
X127291612Y-114760244D01*
X127288690Y-114757322D01*
X127285779Y-114754410D01*
X127260736Y-114734609D01*
X127259338Y-114733470D01*
X127201214Y-114684698D01*
X127195180Y-114680729D01*
X127195212Y-114680680D01*
X127188853Y-114676628D01*
X127188822Y-114676679D01*
X127182680Y-114672891D01*
X127182678Y-114672890D01*
X127182677Y-114672889D01*
X127113872Y-114640804D01*
X127112252Y-114640019D01*
X127072512Y-114620061D01*
X127044433Y-114605960D01*
X127044431Y-114605959D01*
X127044430Y-114605959D01*
X127037645Y-114603489D01*
X127037665Y-114603433D01*
X127030549Y-114600959D01*
X127030531Y-114601015D01*
X127023674Y-114598743D01*
X126949328Y-114583391D01*
X126947569Y-114583001D01*
X126873718Y-114565499D01*
X126866547Y-114564661D01*
X126866553Y-114564601D01*
X126859055Y-114563835D01*
X126859050Y-114563895D01*
X126851860Y-114563265D01*
X126775968Y-114565474D01*
X126774165Y-114565500D01*
X119301166Y-114565500D01*
X119234127Y-114545815D01*
X119226765Y-114540699D01*
X119167098Y-114495948D01*
X119125278Y-114439977D01*
X119117499Y-114396749D01*
X119117499Y-114268129D01*
X119117498Y-114268123D01*
X119111091Y-114208516D01*
X119060797Y-114073671D01*
X119060793Y-114073664D01*
X118974547Y-113958455D01*
X118974544Y-113958452D01*
X118859335Y-113872206D01*
X118859328Y-113872202D01*
X118724482Y-113821908D01*
X118724483Y-113821908D01*
X118664883Y-113815501D01*
X118664881Y-113815500D01*
X118664873Y-113815500D01*
X118664864Y-113815500D01*
X113969129Y-113815500D01*
X113969123Y-113815501D01*
X113909516Y-113821908D01*
X113774671Y-113872202D01*
X113774664Y-113872206D01*
X113659455Y-113958452D01*
X113659452Y-113958455D01*
X113573206Y-114073664D01*
X113573202Y-114073671D01*
X113522908Y-114208516D01*
X113520648Y-114229544D01*
X113493910Y-114294095D01*
X113480182Y-114308572D01*
X113229242Y-114533784D01*
X113166201Y-114563912D01*
X113146419Y-114565500D01*
X113138229Y-114565500D01*
X113071190Y-114545815D01*
X113050548Y-114529181D01*
X108747987Y-110226619D01*
X108723803Y-110192438D01*
X108651843Y-110041977D01*
X108301636Y-109309725D01*
X108042634Y-108768174D01*
X108030499Y-108714674D01*
X108030499Y-108322129D01*
X108030498Y-108322123D01*
X108030497Y-108322116D01*
X108024091Y-108262517D01*
X107973796Y-108127669D01*
X107973795Y-108127668D01*
X107973793Y-108127664D01*
X107887547Y-108012455D01*
X107887544Y-108012452D01*
X107765231Y-107920888D01*
X107766335Y-107919412D01*
X107724680Y-107877750D01*
X107709833Y-107809476D01*
X107734254Y-107744014D01*
X107788519Y-107702784D01*
X108466080Y-107438951D01*
X108511074Y-107430500D01*
X110047664Y-107430500D01*
X110084769Y-107436181D01*
X110987286Y-107719224D01*
X111003140Y-107723170D01*
X111011185Y-107725769D01*
X111048543Y-107740725D01*
X111254914Y-107780500D01*
X111254915Y-107780500D01*
X112212419Y-107780500D01*
X112212425Y-107780500D01*
X112369218Y-107765528D01*
X112570875Y-107706316D01*
X112757682Y-107610011D01*
X112922886Y-107480092D01*
X113060519Y-107321256D01*
X113165604Y-107139244D01*
X113234344Y-106940633D01*
X113264254Y-106732602D01*
X113259243Y-106627401D01*
X135655746Y-106627401D01*
X135665745Y-106837327D01*
X135715296Y-107041578D01*
X135715298Y-107041582D01*
X135802598Y-107232743D01*
X135802601Y-107232748D01*
X135802602Y-107232750D01*
X135802604Y-107232753D01*
X135865627Y-107321256D01*
X135924515Y-107403953D01*
X135924520Y-107403959D01*
X136076620Y-107548985D01*
X136171578Y-107610011D01*
X136253428Y-107662613D01*
X136448543Y-107740725D01*
X136551728Y-107760612D01*
X136654914Y-107780500D01*
X136654915Y-107780500D01*
X137612419Y-107780500D01*
X137612425Y-107780500D01*
X137769218Y-107765528D01*
X137932676Y-107717531D01*
X137940190Y-107715826D01*
X137947158Y-107714694D01*
X138835233Y-107436181D01*
X138872339Y-107430500D01*
X142854344Y-107430500D01*
X142921383Y-107450185D01*
X142966271Y-107501131D01*
X143072632Y-107724195D01*
X143375250Y-108358857D01*
X143417427Y-108447311D01*
X143429500Y-108500680D01*
X143429500Y-108847869D01*
X143429501Y-108847876D01*
X143435908Y-108907483D01*
X143486202Y-109042328D01*
X143486206Y-109042335D01*
X143572452Y-109157544D01*
X143572455Y-109157547D01*
X143687664Y-109243793D01*
X143687673Y-109243798D01*
X143729403Y-109259362D01*
X143785337Y-109301232D01*
X143809755Y-109366696D01*
X143794904Y-109434969D01*
X143745499Y-109484375D01*
X143739758Y-109487319D01*
X142979935Y-109852275D01*
X142926248Y-109864500D01*
X140645453Y-109864500D01*
X140578414Y-109844815D01*
X140557772Y-109828181D01*
X140163656Y-109434065D01*
X140138316Y-109397397D01*
X140101561Y-109315965D01*
X139978057Y-109042335D01*
X139899951Y-108869286D01*
X139899936Y-108869255D01*
X139898555Y-108866531D01*
X139894877Y-108857626D01*
X139894821Y-108857652D01*
X139892180Y-108851721D01*
X139892179Y-108851716D01*
X139883729Y-108837080D01*
X139882133Y-108834133D01*
X139879316Y-108828576D01*
X139878126Y-108826690D01*
X139875256Y-108822403D01*
X139813058Y-108714674D01*
X139797533Y-108687784D01*
X139670871Y-108547112D01*
X139606963Y-108500680D01*
X139517734Y-108435851D01*
X139517729Y-108435848D01*
X139344807Y-108358857D01*
X139344802Y-108358855D01*
X139199000Y-108327865D01*
X139159646Y-108319500D01*
X138970354Y-108319500D01*
X138937897Y-108326398D01*
X138785197Y-108358855D01*
X138785192Y-108358857D01*
X138612270Y-108435848D01*
X138612265Y-108435851D01*
X138459129Y-108547111D01*
X138332466Y-108687785D01*
X138237821Y-108851715D01*
X138237818Y-108851722D01*
X138179327Y-109031740D01*
X138179326Y-109031744D01*
X138159540Y-109220000D01*
X138179326Y-109408256D01*
X138179327Y-109408259D01*
X138237818Y-109588277D01*
X138237821Y-109588284D01*
X138332467Y-109752216D01*
X138415844Y-109844815D01*
X138459129Y-109892888D01*
X138612265Y-110004148D01*
X138612267Y-110004149D01*
X138612270Y-110004151D01*
X138655013Y-110023181D01*
X138677757Y-110033308D01*
X138693898Y-110041977D01*
X138714272Y-110054943D01*
X138714280Y-110054948D01*
X139242399Y-110293318D01*
X139279066Y-110318657D01*
X139834197Y-110873788D01*
X139844022Y-110886051D01*
X139844243Y-110885869D01*
X139849211Y-110891874D01*
X139898932Y-110938566D01*
X139900332Y-110939923D01*
X139920523Y-110960115D01*
X139920527Y-110960118D01*
X139920529Y-110960120D01*
X139926011Y-110964373D01*
X139930443Y-110968157D01*
X139964418Y-111000062D01*
X139981976Y-111009714D01*
X139998235Y-111020395D01*
X140014064Y-111032673D01*
X140056838Y-111051182D01*
X140062056Y-111053738D01*
X140102908Y-111076197D01*
X140122316Y-111081180D01*
X140140717Y-111087480D01*
X140159104Y-111095437D01*
X140202488Y-111102308D01*
X140205119Y-111102725D01*
X140210839Y-111103909D01*
X140255981Y-111115500D01*
X140276016Y-111115500D01*
X140295414Y-111117026D01*
X140315194Y-111120159D01*
X140315195Y-111120160D01*
X140315195Y-111120159D01*
X140315196Y-111120160D01*
X140361583Y-111115775D01*
X140367422Y-111115500D01*
X142926251Y-111115500D01*
X142979938Y-111127725D01*
X144071385Y-111651963D01*
X144123292Y-111698731D01*
X144141674Y-111766140D01*
X144120694Y-111832785D01*
X144088821Y-111865312D01*
X143908594Y-111991508D01*
X143741505Y-112158597D01*
X143605965Y-112352169D01*
X143605964Y-112352171D01*
X143506098Y-112566335D01*
X143506094Y-112566344D01*
X143444938Y-112794586D01*
X143444936Y-112794596D01*
X143424341Y-113029999D01*
X143424341Y-113030000D01*
X143444936Y-113265403D01*
X143444938Y-113265413D01*
X143506094Y-113493655D01*
X143506096Y-113493659D01*
X143506097Y-113493663D01*
X143605965Y-113707829D01*
X143605965Y-113707830D01*
X143605967Y-113707834D01*
X143741501Y-113901395D01*
X143741506Y-113901402D01*
X143908597Y-114068493D01*
X143908603Y-114068498D01*
X144094158Y-114198425D01*
X144137783Y-114253002D01*
X144144977Y-114322500D01*
X144113454Y-114384855D01*
X144094158Y-114401575D01*
X143908597Y-114531505D01*
X143741505Y-114698597D01*
X143605965Y-114892169D01*
X143605964Y-114892171D01*
X143506098Y-115106335D01*
X143506094Y-115106344D01*
X143444938Y-115334586D01*
X143444936Y-115334596D01*
X143424341Y-115569999D01*
X143424341Y-115570388D01*
X143424292Y-115570553D01*
X143423869Y-115575394D01*
X143422896Y-115575308D01*
X143404656Y-115637427D01*
X143351852Y-115683182D01*
X143282694Y-115693126D01*
X143219138Y-115664101D01*
X143212660Y-115658069D01*
X142901819Y-115347228D01*
X142868334Y-115285905D01*
X142865500Y-115259547D01*
X142865500Y-113958235D01*
X142873511Y-113914389D01*
X143078390Y-113372410D01*
X143078391Y-113372406D01*
X143078394Y-113372399D01*
X143092580Y-113329054D01*
X143093016Y-113325674D01*
X143098066Y-113303221D01*
X143110355Y-113265403D01*
X143125674Y-113218256D01*
X143145460Y-113030000D01*
X143125674Y-112841744D01*
X143067179Y-112661716D01*
X142972533Y-112497784D01*
X142845871Y-112357112D01*
X142845870Y-112357111D01*
X142692734Y-112245851D01*
X142692729Y-112245848D01*
X142519807Y-112168857D01*
X142519802Y-112168855D01*
X142374001Y-112137865D01*
X142334646Y-112129500D01*
X142145354Y-112129500D01*
X142112897Y-112136398D01*
X141960197Y-112168855D01*
X141960192Y-112168857D01*
X141787270Y-112245848D01*
X141787265Y-112245851D01*
X141634129Y-112357111D01*
X141507466Y-112497785D01*
X141412821Y-112661715D01*
X141412818Y-112661722D01*
X141369645Y-112794596D01*
X141354326Y-112841744D01*
X141334539Y-113029999D01*
X141334540Y-113030000D01*
X141354326Y-113218256D01*
X141354328Y-113218262D01*
X141394621Y-113342274D01*
X141396181Y-113347989D01*
X141401602Y-113372390D01*
X141401604Y-113372398D01*
X141401605Y-113372400D01*
X141590542Y-113872206D01*
X141606489Y-113914390D01*
X141614500Y-113958236D01*
X141614500Y-115487255D01*
X141612775Y-115502872D01*
X141613061Y-115502899D01*
X141612326Y-115510666D01*
X141614469Y-115578846D01*
X141614500Y-115580793D01*
X141614500Y-115609343D01*
X141614501Y-115609360D01*
X141615368Y-115616231D01*
X141615826Y-115622050D01*
X141617290Y-115668624D01*
X141617291Y-115668627D01*
X141622880Y-115687867D01*
X141626824Y-115706911D01*
X141629336Y-115726791D01*
X141646490Y-115770119D01*
X141648382Y-115775647D01*
X141661381Y-115820388D01*
X141671580Y-115837634D01*
X141680138Y-115855103D01*
X141687514Y-115873732D01*
X141714898Y-115911423D01*
X141718106Y-115916307D01*
X141741827Y-115956416D01*
X141741833Y-115956424D01*
X141755990Y-115970580D01*
X141768628Y-115985376D01*
X141780405Y-116001586D01*
X141780406Y-116001587D01*
X141816309Y-116031288D01*
X141820620Y-116035210D01*
X142726984Y-116941575D01*
X143026903Y-117241494D01*
X143056222Y-117288101D01*
X143500675Y-118554119D01*
X143502063Y-118558609D01*
X143506097Y-118573663D01*
X143506099Y-118573667D01*
X143510624Y-118583373D01*
X143512925Y-118589017D01*
X143514761Y-118594245D01*
X143517085Y-118600592D01*
X143518510Y-118604328D01*
X143518516Y-118604342D01*
X143546906Y-118665997D01*
X143550231Y-118671589D01*
X143550002Y-118671725D01*
X143558278Y-118685567D01*
X143605964Y-118787829D01*
X143605965Y-118787831D01*
X143697016Y-118917864D01*
X143738759Y-118977480D01*
X143741501Y-118981395D01*
X143741506Y-118981402D01*
X143908597Y-119148493D01*
X143908603Y-119148498D01*
X144094594Y-119278730D01*
X144138219Y-119333307D01*
X144145413Y-119402805D01*
X144113890Y-119465160D01*
X144094595Y-119481880D01*
X143908922Y-119611890D01*
X143908920Y-119611891D01*
X143741891Y-119778920D01*
X143741886Y-119778926D01*
X143606400Y-119972420D01*
X143606399Y-119972422D01*
X143506570Y-120186507D01*
X143506567Y-120186513D01*
X143449364Y-120399999D01*
X143449364Y-120400000D01*
X144346314Y-120400000D01*
X144320507Y-120440156D01*
X144280000Y-120578111D01*
X144280000Y-120721889D01*
X144320507Y-120859844D01*
X144346314Y-120900000D01*
X143449364Y-120900000D01*
X143506567Y-121113486D01*
X143506570Y-121113492D01*
X143606399Y-121327578D01*
X143741894Y-121521082D01*
X143908917Y-121688105D01*
X144102421Y-121823600D01*
X144316507Y-121923429D01*
X144316516Y-121923433D01*
X144530000Y-121980634D01*
X144530000Y-121085501D01*
X144637685Y-121134680D01*
X144744237Y-121150000D01*
X144815763Y-121150000D01*
X144922315Y-121134680D01*
X145030000Y-121085501D01*
X145030000Y-121980633D01*
X145243483Y-121923433D01*
X145243492Y-121923429D01*
X145457578Y-121823600D01*
X145651082Y-121688105D01*
X145818105Y-121521082D01*
X145953600Y-121327578D01*
X146053429Y-121113492D01*
X146053432Y-121113486D01*
X146110636Y-120900000D01*
X145213686Y-120900000D01*
X145239493Y-120859844D01*
X145280000Y-120721889D01*
X145280000Y-120578111D01*
X145239493Y-120440156D01*
X145213686Y-120400000D01*
X146110636Y-120400000D01*
X146110635Y-120399999D01*
X146053432Y-120186513D01*
X146053429Y-120186507D01*
X145953600Y-119972422D01*
X145953599Y-119972420D01*
X145818113Y-119778926D01*
X145818108Y-119778920D01*
X145651078Y-119611890D01*
X145465405Y-119481879D01*
X145421780Y-119427302D01*
X145414588Y-119357804D01*
X145446110Y-119295449D01*
X145465406Y-119278730D01*
X145628663Y-119164416D01*
X145651401Y-119148495D01*
X145818495Y-118981401D01*
X145954035Y-118787830D01*
X146053903Y-118573663D01*
X146115063Y-118345408D01*
X146135659Y-118110000D01*
X146115063Y-117874592D01*
X146053903Y-117646337D01*
X145954035Y-117432171D01*
X145818495Y-117238599D01*
X145818494Y-117238597D01*
X145651402Y-117071506D01*
X145651396Y-117071501D01*
X145465842Y-116941575D01*
X145422217Y-116886998D01*
X145415023Y-116817500D01*
X145446546Y-116755145D01*
X145465842Y-116738425D01*
X145524987Y-116697011D01*
X145651401Y-116608495D01*
X145818495Y-116441401D01*
X145954035Y-116247830D01*
X146053903Y-116033663D01*
X146115063Y-115805408D01*
X146135659Y-115570000D01*
X146115063Y-115334592D01*
X146053903Y-115106337D01*
X145954035Y-114892171D01*
X145910756Y-114830361D01*
X145818494Y-114698597D01*
X145651402Y-114531506D01*
X145651396Y-114531501D01*
X145465842Y-114401575D01*
X145422217Y-114346998D01*
X145415023Y-114277500D01*
X145446546Y-114215145D01*
X145465842Y-114198425D01*
X145488026Y-114182891D01*
X145651401Y-114068495D01*
X145818495Y-113901401D01*
X145954035Y-113707830D01*
X146053903Y-113493663D01*
X146115063Y-113265408D01*
X146135659Y-113030000D01*
X146115063Y-112794592D01*
X146053903Y-112566337D01*
X145954035Y-112352171D01*
X145879590Y-112245851D01*
X145818494Y-112158597D01*
X145651402Y-111991506D01*
X145651396Y-111991501D01*
X145465842Y-111861575D01*
X145422217Y-111806998D01*
X145415023Y-111737500D01*
X145446546Y-111675145D01*
X145465842Y-111658425D01*
X145488026Y-111642891D01*
X145651401Y-111528495D01*
X145818495Y-111361401D01*
X145954035Y-111167830D01*
X146053903Y-110953663D01*
X146115063Y-110725408D01*
X146135659Y-110490000D01*
X146115063Y-110254592D01*
X146053903Y-110026337D01*
X145954035Y-109812171D01*
X145912054Y-109752216D01*
X145818496Y-109618600D01*
X145788173Y-109588277D01*
X145696567Y-109496671D01*
X145663084Y-109435351D01*
X145668068Y-109365659D01*
X145709939Y-109309725D01*
X145740915Y-109292810D01*
X145872331Y-109243796D01*
X145987546Y-109157546D01*
X146073796Y-109042331D01*
X146124091Y-108907483D01*
X146130500Y-108847873D01*
X146130499Y-107052128D01*
X146124091Y-106992517D01*
X146095331Y-106915408D01*
X146073797Y-106857671D01*
X146073793Y-106857664D01*
X145987547Y-106742455D01*
X145987544Y-106742452D01*
X145872335Y-106656206D01*
X145872328Y-106656202D01*
X145737482Y-106605908D01*
X145737483Y-106605908D01*
X145677883Y-106599501D01*
X145677881Y-106599500D01*
X145677873Y-106599500D01*
X145677865Y-106599500D01*
X145213327Y-106599500D01*
X145170784Y-106591973D01*
X144119598Y-106208015D01*
X144063381Y-106166525D01*
X144062678Y-106165590D01*
X144059614Y-106161474D01*
X144059611Y-106161471D01*
X144059610Y-106161470D01*
X144019587Y-106127886D01*
X144015612Y-106124244D01*
X144012690Y-106121322D01*
X144009779Y-106118410D01*
X143984736Y-106098609D01*
X143983338Y-106097470D01*
X143925214Y-106048698D01*
X143919180Y-106044729D01*
X143919212Y-106044680D01*
X143912853Y-106040628D01*
X143912822Y-106040679D01*
X143906680Y-106036891D01*
X143906678Y-106036890D01*
X143906677Y-106036889D01*
X143837872Y-106004804D01*
X143836252Y-106004019D01*
X143796512Y-105984061D01*
X143768433Y-105969960D01*
X143768431Y-105969959D01*
X143768430Y-105969959D01*
X143761645Y-105967489D01*
X143761665Y-105967433D01*
X143754549Y-105964959D01*
X143754531Y-105965015D01*
X143747674Y-105962743D01*
X143673328Y-105947391D01*
X143671569Y-105947001D01*
X143597718Y-105929499D01*
X143590547Y-105928661D01*
X143590553Y-105928601D01*
X143583055Y-105927835D01*
X143583050Y-105927895D01*
X143575860Y-105927265D01*
X143499968Y-105929474D01*
X143498165Y-105929500D01*
X138872337Y-105929500D01*
X138835231Y-105923818D01*
X137932704Y-105640772D01*
X137919974Y-105637603D01*
X137916865Y-105636829D01*
X137908799Y-105634224D01*
X137892245Y-105627597D01*
X137871458Y-105619275D01*
X137871455Y-105619274D01*
X137665086Y-105579500D01*
X137665085Y-105579500D01*
X136707575Y-105579500D01*
X136550781Y-105594472D01*
X136550782Y-105594472D01*
X136550778Y-105594473D01*
X136349127Y-105653683D01*
X136162313Y-105749991D01*
X135997116Y-105879905D01*
X135997112Y-105879909D01*
X135859478Y-106038746D01*
X135754398Y-106220750D01*
X135685656Y-106419365D01*
X135685656Y-106419367D01*
X135660840Y-106591973D01*
X135655746Y-106627401D01*
X113259243Y-106627401D01*
X113254254Y-106522670D01*
X113204704Y-106318424D01*
X113204701Y-106318417D01*
X113117401Y-106127256D01*
X113117398Y-106127251D01*
X113117397Y-106127250D01*
X113117396Y-106127247D01*
X112995486Y-105956048D01*
X112995484Y-105956046D01*
X112995479Y-105956040D01*
X112843379Y-105811014D01*
X112666574Y-105697388D01*
X112471455Y-105619274D01*
X112265086Y-105579500D01*
X112265085Y-105579500D01*
X111307575Y-105579500D01*
X111150781Y-105594472D01*
X111150782Y-105594472D01*
X111150776Y-105594473D01*
X110987339Y-105642463D01*
X110979812Y-105644172D01*
X110972843Y-105645305D01*
X110084767Y-105923818D01*
X110047661Y-105929500D01*
X108511076Y-105929500D01*
X108466083Y-105921049D01*
X107199382Y-105427811D01*
X107199367Y-105427806D01*
X107199362Y-105427804D01*
X107189634Y-105424544D01*
X107170171Y-105418021D01*
X107163665Y-105415424D01*
X107143661Y-105406096D01*
X106915413Y-105344938D01*
X106915403Y-105344936D01*
X106680001Y-105324341D01*
X106679999Y-105324341D01*
X106444596Y-105344936D01*
X106444586Y-105344938D01*
X106216344Y-105406094D01*
X106216335Y-105406098D01*
X106002171Y-105505964D01*
X106002169Y-105505965D01*
X105808597Y-105641505D01*
X105641505Y-105808597D01*
X105505965Y-106002169D01*
X105505964Y-106002171D01*
X105406098Y-106216335D01*
X105406094Y-106216344D01*
X105344938Y-106444586D01*
X105344936Y-106444596D01*
X105324341Y-106679999D01*
X105324341Y-106680000D01*
X101600499Y-106680000D01*
X101600499Y-104087421D01*
X110256247Y-104087421D01*
X110266242Y-104297255D01*
X110315770Y-104501409D01*
X110403040Y-104692507D01*
X110524886Y-104863614D01*
X110524895Y-104863624D01*
X110605738Y-104940707D01*
X111276922Y-104269523D01*
X111300507Y-104349844D01*
X111378239Y-104470798D01*
X111486900Y-104564952D01*
X111617685Y-104624680D01*
X111627466Y-104626086D01*
X111052560Y-105200990D01*
X111254962Y-105240000D01*
X112212398Y-105240000D01*
X112369122Y-105225034D01*
X112369129Y-105225033D01*
X112463709Y-105197262D01*
X112463709Y-105197261D01*
X111892533Y-104626086D01*
X111902315Y-104624680D01*
X112033100Y-104564952D01*
X112141761Y-104470798D01*
X112219493Y-104349844D01*
X112243076Y-104269523D01*
X112917356Y-104943803D01*
X112922539Y-104939729D01*
X113060105Y-104780969D01*
X113060114Y-104780958D01*
X113165144Y-104599039D01*
X113165147Y-104599032D01*
X113233854Y-104400518D01*
X113233855Y-104400516D01*
X113263752Y-104192578D01*
X113258743Y-104087421D01*
X135656247Y-104087421D01*
X135666242Y-104297255D01*
X135715770Y-104501409D01*
X135803040Y-104692507D01*
X135924886Y-104863614D01*
X135924895Y-104863624D01*
X136005738Y-104940707D01*
X136676922Y-104269523D01*
X136700507Y-104349844D01*
X136778239Y-104470798D01*
X136886900Y-104564952D01*
X137017685Y-104624680D01*
X137027466Y-104626086D01*
X136452560Y-105200990D01*
X136654962Y-105240000D01*
X137612398Y-105240000D01*
X137769122Y-105225034D01*
X137769129Y-105225033D01*
X137863709Y-105197262D01*
X137863709Y-105197261D01*
X137292533Y-104626086D01*
X137302315Y-104624680D01*
X137433100Y-104564952D01*
X137541761Y-104470798D01*
X137619493Y-104349844D01*
X137643076Y-104269523D01*
X138317356Y-104943803D01*
X138322539Y-104939729D01*
X138460105Y-104780969D01*
X138460114Y-104780958D01*
X138565144Y-104599039D01*
X138565147Y-104599032D01*
X138633854Y-104400518D01*
X138633855Y-104400516D01*
X138663752Y-104192578D01*
X138653757Y-103982744D01*
X138604229Y-103778590D01*
X138516959Y-103587492D01*
X138395110Y-103416380D01*
X138395099Y-103416368D01*
X138314261Y-103339290D01*
X138314261Y-103339291D01*
X137643076Y-104010475D01*
X137619493Y-103930156D01*
X137541761Y-103809202D01*
X137433100Y-103715048D01*
X137302315Y-103655320D01*
X137292533Y-103653913D01*
X137867438Y-103079007D01*
X137665038Y-103040000D01*
X136707602Y-103040000D01*
X136550875Y-103054965D01*
X136456290Y-103082737D01*
X137027466Y-103653913D01*
X137017685Y-103655320D01*
X136886900Y-103715048D01*
X136778239Y-103809202D01*
X136700507Y-103930156D01*
X136676923Y-104010475D01*
X136002642Y-103336195D01*
X136002641Y-103336194D01*
X135997460Y-103340270D01*
X135997459Y-103340270D01*
X135859894Y-103499030D01*
X135859885Y-103499041D01*
X135754855Y-103680960D01*
X135754852Y-103680967D01*
X135686145Y-103879481D01*
X135686144Y-103879483D01*
X135656248Y-104087419D01*
X135656247Y-104087421D01*
X113258743Y-104087421D01*
X113253757Y-103982744D01*
X113204229Y-103778590D01*
X113116959Y-103587492D01*
X112995110Y-103416380D01*
X112995099Y-103416368D01*
X112914261Y-103339290D01*
X112914261Y-103339291D01*
X112243076Y-104010475D01*
X112219493Y-103930156D01*
X112141761Y-103809202D01*
X112033100Y-103715048D01*
X111902315Y-103655320D01*
X111892533Y-103653913D01*
X112467438Y-103079007D01*
X112265038Y-103040000D01*
X111307602Y-103040000D01*
X111150875Y-103054965D01*
X111056290Y-103082737D01*
X111627466Y-103653913D01*
X111617685Y-103655320D01*
X111486900Y-103715048D01*
X111378239Y-103809202D01*
X111300507Y-103930156D01*
X111276923Y-104010475D01*
X110602642Y-103336195D01*
X110602641Y-103336194D01*
X110597460Y-103340270D01*
X110597459Y-103340270D01*
X110459894Y-103499030D01*
X110459885Y-103499041D01*
X110354855Y-103680960D01*
X110354852Y-103680967D01*
X110286145Y-103879481D01*
X110286144Y-103879483D01*
X110256248Y-104087419D01*
X110256247Y-104087421D01*
X101600499Y-104087421D01*
X101600499Y-101547401D01*
X110255746Y-101547401D01*
X110265745Y-101757327D01*
X110315296Y-101961578D01*
X110315298Y-101961582D01*
X110402598Y-102152743D01*
X110402601Y-102152748D01*
X110402602Y-102152750D01*
X110402604Y-102152753D01*
X110524514Y-102323952D01*
X110524515Y-102323953D01*
X110524520Y-102323959D01*
X110676620Y-102468985D01*
X110771578Y-102530011D01*
X110853428Y-102582613D01*
X111048543Y-102660725D01*
X111151729Y-102680612D01*
X111254914Y-102700500D01*
X111254915Y-102700500D01*
X112212419Y-102700500D01*
X112212425Y-102700500D01*
X112369218Y-102685528D01*
X112570875Y-102626316D01*
X112757682Y-102530011D01*
X112922886Y-102400092D01*
X113060519Y-102241256D01*
X113165604Y-102059244D01*
X113234344Y-101860633D01*
X113264254Y-101652602D01*
X113259243Y-101547401D01*
X135655746Y-101547401D01*
X135665745Y-101757327D01*
X135715296Y-101961578D01*
X135715298Y-101961582D01*
X135802598Y-102152743D01*
X135802601Y-102152748D01*
X135802602Y-102152750D01*
X135802604Y-102152753D01*
X135924514Y-102323952D01*
X135924515Y-102323953D01*
X135924520Y-102323959D01*
X136076620Y-102468985D01*
X136171578Y-102530011D01*
X136253428Y-102582613D01*
X136448543Y-102660725D01*
X136551728Y-102680612D01*
X136654914Y-102700500D01*
X136654915Y-102700500D01*
X137612419Y-102700500D01*
X137612425Y-102700500D01*
X137769218Y-102685528D01*
X137970875Y-102626316D01*
X137977950Y-102622668D01*
X137996863Y-102615227D01*
X137996809Y-102615075D01*
X138000954Y-102613583D01*
X138000974Y-102613578D01*
X138833635Y-102245185D01*
X138854163Y-102236103D01*
X138904333Y-102225500D01*
X142842140Y-102225500D01*
X142909179Y-102245185D01*
X142922609Y-102255157D01*
X143593721Y-102827577D01*
X143593756Y-102827606D01*
X143609950Y-102840503D01*
X143620322Y-102848764D01*
X143638302Y-102858496D01*
X143653572Y-102868271D01*
X143687665Y-102893793D01*
X143687669Y-102893796D01*
X143734549Y-102911281D01*
X143742406Y-102914851D01*
X143746841Y-102917252D01*
X143746844Y-102917253D01*
X143746853Y-102917258D01*
X143754439Y-102920056D01*
X143765257Y-102923005D01*
X143770590Y-102924723D01*
X143822517Y-102944091D01*
X143882127Y-102950500D01*
X145677872Y-102950499D01*
X145737483Y-102944091D01*
X145872331Y-102893796D01*
X145987546Y-102807546D01*
X146073796Y-102692331D01*
X146124091Y-102557483D01*
X146130500Y-102497873D01*
X146130499Y-100702128D01*
X146124091Y-100642517D01*
X146114718Y-100617388D01*
X146073797Y-100507671D01*
X146073793Y-100507664D01*
X145987547Y-100392455D01*
X145987544Y-100392452D01*
X145872335Y-100306206D01*
X145872328Y-100306202D01*
X145737482Y-100255908D01*
X145737483Y-100255908D01*
X145677883Y-100249501D01*
X145677881Y-100249500D01*
X145677873Y-100249500D01*
X145677865Y-100249500D01*
X143924654Y-100249500D01*
X143917543Y-100249091D01*
X143917294Y-100249062D01*
X143916255Y-100248942D01*
X143907414Y-100249188D01*
X143907410Y-100249076D01*
X143902442Y-100249500D01*
X143882141Y-100249500D01*
X143882128Y-100249501D01*
X143822516Y-100255908D01*
X143781499Y-100271207D01*
X143774716Y-100273304D01*
X143774483Y-100273361D01*
X143765972Y-100276119D01*
X143765957Y-100276124D01*
X143765950Y-100276127D01*
X143739607Y-100286253D01*
X143714539Y-100295889D01*
X143709879Y-100297920D01*
X143687670Y-100306203D01*
X143687667Y-100306204D01*
X143630887Y-100348710D01*
X143626843Y-100351495D01*
X143593740Y-100372406D01*
X143593734Y-100372411D01*
X142922608Y-100944843D01*
X142858828Y-100973372D01*
X142842139Y-100974500D01*
X138904336Y-100974500D01*
X138854166Y-100963897D01*
X138000978Y-100586422D01*
X138000965Y-100586417D01*
X137923574Y-100560048D01*
X137920538Y-100558923D01*
X137907031Y-100553516D01*
X137871459Y-100539275D01*
X137871455Y-100539274D01*
X137665086Y-100499500D01*
X137665085Y-100499500D01*
X136707575Y-100499500D01*
X136550781Y-100514472D01*
X136550782Y-100514472D01*
X136550778Y-100514473D01*
X136349127Y-100573683D01*
X136162313Y-100669991D01*
X135997116Y-100799905D01*
X135997112Y-100799909D01*
X135859478Y-100958746D01*
X135754398Y-101140750D01*
X135685656Y-101339365D01*
X135685656Y-101339367D01*
X135670804Y-101442670D01*
X135655746Y-101547401D01*
X113259243Y-101547401D01*
X113254254Y-101442670D01*
X113204704Y-101238424D01*
X113204701Y-101238417D01*
X113117401Y-101047256D01*
X113117398Y-101047251D01*
X113117397Y-101047250D01*
X113117396Y-101047247D01*
X112995486Y-100876048D01*
X112995484Y-100876046D01*
X112995479Y-100876040D01*
X112843379Y-100731014D01*
X112666574Y-100617388D01*
X112471455Y-100539274D01*
X112265086Y-100499500D01*
X112265085Y-100499500D01*
X111307575Y-100499500D01*
X111150781Y-100514472D01*
X111150782Y-100514472D01*
X111150778Y-100514473D01*
X110949127Y-100573683D01*
X110762313Y-100669991D01*
X110597116Y-100799905D01*
X110597112Y-100799909D01*
X110459478Y-100958746D01*
X110354398Y-101140750D01*
X110285656Y-101339365D01*
X110285656Y-101339367D01*
X110270804Y-101442670D01*
X110255746Y-101547401D01*
X101600499Y-101547401D01*
X101600499Y-99007401D01*
X110255746Y-99007401D01*
X110265745Y-99217327D01*
X110315296Y-99421578D01*
X110315298Y-99421582D01*
X110402598Y-99612743D01*
X110402601Y-99612748D01*
X110402602Y-99612750D01*
X110402604Y-99612753D01*
X110507747Y-99760406D01*
X110524515Y-99783953D01*
X110524520Y-99783959D01*
X110676620Y-99928985D01*
X110771578Y-99990011D01*
X110853428Y-100042613D01*
X111048543Y-100120725D01*
X111151729Y-100140612D01*
X111254914Y-100160500D01*
X111254915Y-100160500D01*
X112212419Y-100160500D01*
X112212425Y-100160500D01*
X112369218Y-100145528D01*
X112570875Y-100086316D01*
X112757682Y-99990011D01*
X112922886Y-99860092D01*
X113060519Y-99701256D01*
X113165604Y-99519244D01*
X113234344Y-99320633D01*
X113264254Y-99112602D01*
X113262463Y-99075000D01*
X121829341Y-99075000D01*
X121849936Y-99310403D01*
X121849938Y-99310413D01*
X121911094Y-99538655D01*
X121911096Y-99538659D01*
X121911097Y-99538663D01*
X121994155Y-99716781D01*
X122010965Y-99752830D01*
X122010967Y-99752834D01*
X122086072Y-99860094D01*
X122146505Y-99946401D01*
X122313599Y-100113495D01*
X122359347Y-100145528D01*
X122507165Y-100249032D01*
X122507167Y-100249033D01*
X122507170Y-100249035D01*
X122721337Y-100348903D01*
X122721343Y-100348904D01*
X122721344Y-100348905D01*
X122776285Y-100363626D01*
X122949592Y-100410063D01*
X123137918Y-100426539D01*
X123184999Y-100430659D01*
X123185000Y-100430659D01*
X123185001Y-100430659D01*
X123224234Y-100427226D01*
X123420408Y-100410063D01*
X123648663Y-100348903D01*
X123862830Y-100249035D01*
X124056401Y-100113495D01*
X124223495Y-99946401D01*
X124353730Y-99760405D01*
X124408307Y-99716781D01*
X124477805Y-99709587D01*
X124540160Y-99741110D01*
X124556879Y-99760405D01*
X124686890Y-99946078D01*
X124853917Y-100113105D01*
X125047421Y-100248600D01*
X125261507Y-100348429D01*
X125261516Y-100348433D01*
X125474998Y-100405635D01*
X125474999Y-100405634D01*
X125474999Y-99510501D01*
X125582685Y-99559680D01*
X125689237Y-99575000D01*
X125760763Y-99575000D01*
X125867315Y-99559680D01*
X125975000Y-99510501D01*
X125975000Y-100405633D01*
X126188483Y-100348433D01*
X126188492Y-100348429D01*
X126402578Y-100248600D01*
X126596082Y-100113105D01*
X126763105Y-99946082D01*
X126898600Y-99752578D01*
X126998429Y-99538492D01*
X126998432Y-99538486D01*
X127055636Y-99325000D01*
X126158686Y-99325000D01*
X126184493Y-99284844D01*
X126225000Y-99146889D01*
X126225000Y-99007401D01*
X135655746Y-99007401D01*
X135665745Y-99217327D01*
X135715296Y-99421578D01*
X135715298Y-99421582D01*
X135802598Y-99612743D01*
X135802601Y-99612748D01*
X135802602Y-99612750D01*
X135802604Y-99612753D01*
X135907747Y-99760406D01*
X135924515Y-99783953D01*
X135924520Y-99783959D01*
X136076620Y-99928985D01*
X136171578Y-99990011D01*
X136253428Y-100042613D01*
X136448543Y-100120725D01*
X136551729Y-100140612D01*
X136654914Y-100160500D01*
X136654915Y-100160500D01*
X137612419Y-100160500D01*
X137612425Y-100160500D01*
X137769218Y-100145528D01*
X137970875Y-100086316D01*
X138157682Y-99990011D01*
X138322886Y-99860092D01*
X138460519Y-99701256D01*
X138565604Y-99519244D01*
X138634344Y-99320633D01*
X138664254Y-99112602D01*
X138654254Y-98902670D01*
X138604704Y-98698424D01*
X138604701Y-98698417D01*
X138517401Y-98507256D01*
X138517398Y-98507251D01*
X138517397Y-98507250D01*
X138517396Y-98507247D01*
X138395486Y-98336048D01*
X138395484Y-98336046D01*
X138395479Y-98336040D01*
X138243379Y-98191014D01*
X138066574Y-98077388D01*
X137871455Y-97999274D01*
X137665086Y-97959500D01*
X137665085Y-97959500D01*
X136707575Y-97959500D01*
X136550781Y-97974472D01*
X136550782Y-97974472D01*
X136550778Y-97974473D01*
X136349127Y-98033683D01*
X136162313Y-98129991D01*
X135997116Y-98259905D01*
X135997112Y-98259909D01*
X135859478Y-98418746D01*
X135754398Y-98600750D01*
X135685656Y-98799365D01*
X135685656Y-98799367D01*
X135656363Y-99003111D01*
X135655746Y-99007401D01*
X126225000Y-99007401D01*
X126225000Y-99003111D01*
X126184493Y-98865156D01*
X126158686Y-98825000D01*
X127055636Y-98825000D01*
X127055635Y-98824999D01*
X126998432Y-98611513D01*
X126998429Y-98611507D01*
X126898600Y-98397422D01*
X126898599Y-98397420D01*
X126763113Y-98203926D01*
X126763108Y-98203920D01*
X126596078Y-98036890D01*
X126410405Y-97906879D01*
X126366780Y-97852302D01*
X126359588Y-97782804D01*
X126391110Y-97720449D01*
X126410406Y-97703730D01*
X126410843Y-97703424D01*
X126596401Y-97573495D01*
X126763495Y-97406401D01*
X126899035Y-97212830D01*
X126998903Y-96998663D01*
X127060063Y-96770408D01*
X127080659Y-96535000D01*
X127074745Y-96467401D01*
X135655746Y-96467401D01*
X135665745Y-96677327D01*
X135715296Y-96881578D01*
X135715298Y-96881582D01*
X135802598Y-97072743D01*
X135802601Y-97072748D01*
X135802602Y-97072750D01*
X135802604Y-97072753D01*
X135924514Y-97243952D01*
X135924515Y-97243953D01*
X135924520Y-97243959D01*
X136076620Y-97388985D01*
X136171578Y-97450011D01*
X136253428Y-97502613D01*
X136448543Y-97580725D01*
X136551728Y-97600612D01*
X136654914Y-97620500D01*
X136654915Y-97620500D01*
X137612419Y-97620500D01*
X137612425Y-97620500D01*
X137769218Y-97605528D01*
X137970875Y-97546316D01*
X138157682Y-97450011D01*
X138322886Y-97320092D01*
X138460519Y-97161256D01*
X138565604Y-96979244D01*
X138634344Y-96780633D01*
X138664254Y-96572602D01*
X138654254Y-96362670D01*
X138604704Y-96158424D01*
X138564932Y-96071335D01*
X138517401Y-95967256D01*
X138517398Y-95967251D01*
X138517397Y-95967250D01*
X138517396Y-95967247D01*
X138395486Y-95796048D01*
X138395484Y-95796046D01*
X138395479Y-95796040D01*
X138243379Y-95651014D01*
X138066574Y-95537388D01*
X137871455Y-95459274D01*
X137665086Y-95419500D01*
X137665085Y-95419500D01*
X136707575Y-95419500D01*
X136550781Y-95434472D01*
X136550782Y-95434472D01*
X136550778Y-95434473D01*
X136349127Y-95493683D01*
X136162313Y-95589991D01*
X135997116Y-95719905D01*
X135997112Y-95719909D01*
X135859478Y-95878746D01*
X135754398Y-96060750D01*
X135685656Y-96259365D01*
X135685656Y-96259367D01*
X135670804Y-96362670D01*
X135655746Y-96467401D01*
X127074745Y-96467401D01*
X127060063Y-96299592D01*
X126998903Y-96071337D01*
X126899035Y-95857171D01*
X126893425Y-95849158D01*
X126763494Y-95663597D01*
X126596402Y-95496506D01*
X126596396Y-95496501D01*
X126410842Y-95366575D01*
X126367217Y-95311998D01*
X126360023Y-95242500D01*
X126391546Y-95180145D01*
X126410842Y-95163425D01*
X126550653Y-95065528D01*
X126596401Y-95033495D01*
X126763495Y-94866401D01*
X126899035Y-94672830D01*
X126998903Y-94458663D01*
X127060063Y-94230408D01*
X127080659Y-93995000D01*
X127074745Y-93927401D01*
X135655746Y-93927401D01*
X135665745Y-94137327D01*
X135715296Y-94341578D01*
X135715298Y-94341582D01*
X135802598Y-94532743D01*
X135802601Y-94532748D01*
X135802602Y-94532750D01*
X135802604Y-94532753D01*
X135924514Y-94703952D01*
X135924515Y-94703953D01*
X135924520Y-94703959D01*
X136076620Y-94848985D01*
X136171578Y-94910011D01*
X136253428Y-94962613D01*
X136448543Y-95040725D01*
X136551729Y-95060612D01*
X136654914Y-95080500D01*
X136654915Y-95080500D01*
X137612419Y-95080500D01*
X137612425Y-95080500D01*
X137769218Y-95065528D01*
X137970875Y-95006316D01*
X138157682Y-94910011D01*
X138322886Y-94780092D01*
X138460519Y-94621256D01*
X138565604Y-94439244D01*
X138634344Y-94240633D01*
X138664254Y-94032602D01*
X138654254Y-93822670D01*
X138604704Y-93618424D01*
X138564932Y-93531335D01*
X138517401Y-93427256D01*
X138517398Y-93427251D01*
X138517397Y-93427250D01*
X138517396Y-93427247D01*
X138395486Y-93256048D01*
X138395484Y-93256046D01*
X138395479Y-93256040D01*
X138243379Y-93111014D01*
X138066574Y-92997388D01*
X137871455Y-92919274D01*
X137665086Y-92879500D01*
X137665085Y-92879500D01*
X136707575Y-92879500D01*
X136550781Y-92894472D01*
X136550782Y-92894472D01*
X136550778Y-92894473D01*
X136349127Y-92953683D01*
X136162313Y-93049991D01*
X135997116Y-93179905D01*
X135997112Y-93179909D01*
X135859478Y-93338746D01*
X135754398Y-93520750D01*
X135685656Y-93719365D01*
X135685656Y-93719367D01*
X135670804Y-93822670D01*
X135655746Y-93927401D01*
X127074745Y-93927401D01*
X127060063Y-93759592D01*
X126998903Y-93531337D01*
X126899035Y-93317171D01*
X126893425Y-93309158D01*
X126763494Y-93123597D01*
X126596402Y-92956506D01*
X126596396Y-92956501D01*
X126410842Y-92826575D01*
X126367217Y-92771998D01*
X126360023Y-92702500D01*
X126391546Y-92640145D01*
X126410842Y-92623425D01*
X126550653Y-92525528D01*
X126596401Y-92493495D01*
X126763495Y-92326401D01*
X126899035Y-92132830D01*
X126998903Y-91918663D01*
X127060063Y-91690408D01*
X127080659Y-91455000D01*
X127074745Y-91387401D01*
X135655746Y-91387401D01*
X135665745Y-91597327D01*
X135715296Y-91801578D01*
X135715298Y-91801582D01*
X135802598Y-91992743D01*
X135802601Y-91992748D01*
X135802602Y-91992750D01*
X135802604Y-91992753D01*
X135924514Y-92163952D01*
X135924515Y-92163953D01*
X135924520Y-92163959D01*
X136076620Y-92308985D01*
X136171578Y-92370011D01*
X136253428Y-92422613D01*
X136448543Y-92500725D01*
X136551728Y-92520612D01*
X136654914Y-92540500D01*
X136654915Y-92540500D01*
X137612419Y-92540500D01*
X137612425Y-92540500D01*
X137769218Y-92525528D01*
X137970875Y-92466316D01*
X138157682Y-92370011D01*
X138322886Y-92240092D01*
X138460519Y-92081256D01*
X138565604Y-91899244D01*
X138634344Y-91700633D01*
X138664254Y-91492602D01*
X138654254Y-91282670D01*
X138604704Y-91078424D01*
X138564932Y-90991335D01*
X138517401Y-90887256D01*
X138517398Y-90887251D01*
X138517397Y-90887250D01*
X138517396Y-90887247D01*
X138395486Y-90716048D01*
X138395484Y-90716046D01*
X138395479Y-90716040D01*
X138243379Y-90571014D01*
X138066574Y-90457388D01*
X137871455Y-90379274D01*
X137665086Y-90339500D01*
X137665085Y-90339500D01*
X136707575Y-90339500D01*
X136550782Y-90354472D01*
X136550778Y-90354473D01*
X136349127Y-90413683D01*
X136162313Y-90509991D01*
X135997116Y-90639905D01*
X135997112Y-90639909D01*
X135859478Y-90798746D01*
X135754398Y-90980750D01*
X135685656Y-91179365D01*
X135685656Y-91179367D01*
X135670804Y-91282670D01*
X135655746Y-91387401D01*
X127074745Y-91387401D01*
X127060063Y-91219592D01*
X126998903Y-90991337D01*
X126899035Y-90777171D01*
X126893425Y-90769158D01*
X126763494Y-90583597D01*
X126596402Y-90416506D01*
X126596396Y-90416501D01*
X126410842Y-90286575D01*
X126367217Y-90231998D01*
X126360023Y-90162500D01*
X126391546Y-90100145D01*
X126410842Y-90083425D01*
X126550653Y-89985528D01*
X126596401Y-89953495D01*
X126763495Y-89786401D01*
X126899035Y-89592830D01*
X126998903Y-89378663D01*
X127060063Y-89150408D01*
X127080659Y-88915000D01*
X127074745Y-88847401D01*
X135655746Y-88847401D01*
X135665745Y-89057327D01*
X135715296Y-89261578D01*
X135715298Y-89261582D01*
X135802598Y-89452743D01*
X135802601Y-89452748D01*
X135802602Y-89452750D01*
X135802604Y-89452753D01*
X135924514Y-89623952D01*
X135924515Y-89623953D01*
X135924520Y-89623959D01*
X136076620Y-89768985D01*
X136171578Y-89830011D01*
X136253428Y-89882613D01*
X136448543Y-89960725D01*
X136551729Y-89980612D01*
X136654914Y-90000500D01*
X136654915Y-90000500D01*
X137612419Y-90000500D01*
X137612425Y-90000500D01*
X137769218Y-89985528D01*
X137970875Y-89926316D01*
X138157682Y-89830011D01*
X138322886Y-89700092D01*
X138460519Y-89541256D01*
X138565604Y-89359244D01*
X138634344Y-89160633D01*
X138664254Y-88952602D01*
X138654254Y-88742670D01*
X138604704Y-88538424D01*
X138564932Y-88451335D01*
X138517401Y-88347256D01*
X138517398Y-88347251D01*
X138517397Y-88347250D01*
X138517396Y-88347247D01*
X138395486Y-88176048D01*
X138395484Y-88176046D01*
X138395479Y-88176040D01*
X138243379Y-88031014D01*
X138066574Y-87917388D01*
X137871455Y-87839274D01*
X137665086Y-87799500D01*
X137665085Y-87799500D01*
X136707575Y-87799500D01*
X136550781Y-87814472D01*
X136550782Y-87814472D01*
X136550778Y-87814473D01*
X136349127Y-87873683D01*
X136162313Y-87969991D01*
X135997116Y-88099905D01*
X135997112Y-88099909D01*
X135859478Y-88258746D01*
X135754398Y-88440750D01*
X135685656Y-88639365D01*
X135685656Y-88639367D01*
X135670804Y-88742670D01*
X135655746Y-88847401D01*
X127074745Y-88847401D01*
X127060063Y-88679592D01*
X126998903Y-88451337D01*
X126899035Y-88237171D01*
X126893425Y-88229158D01*
X126763494Y-88043597D01*
X126596402Y-87876506D01*
X126596396Y-87876501D01*
X126410842Y-87746575D01*
X126367217Y-87691998D01*
X126360023Y-87622500D01*
X126391546Y-87560145D01*
X126410842Y-87543425D01*
X126550653Y-87445528D01*
X126596401Y-87413495D01*
X126763495Y-87246401D01*
X126899035Y-87052830D01*
X126998903Y-86838663D01*
X127060063Y-86610408D01*
X127080659Y-86375000D01*
X127074745Y-86307401D01*
X135655746Y-86307401D01*
X135665745Y-86517327D01*
X135715296Y-86721578D01*
X135715298Y-86721582D01*
X135802598Y-86912743D01*
X135802601Y-86912748D01*
X135802602Y-86912750D01*
X135802604Y-86912753D01*
X135924514Y-87083952D01*
X135924515Y-87083953D01*
X135924520Y-87083959D01*
X136076620Y-87228985D01*
X136171578Y-87290011D01*
X136253428Y-87342613D01*
X136448543Y-87420725D01*
X136551728Y-87440612D01*
X136654914Y-87460500D01*
X136654915Y-87460500D01*
X137612419Y-87460500D01*
X137612425Y-87460500D01*
X137769218Y-87445528D01*
X137970875Y-87386316D01*
X138157682Y-87290011D01*
X138322886Y-87160092D01*
X138460519Y-87001256D01*
X138565604Y-86819244D01*
X138634344Y-86620633D01*
X138664254Y-86412602D01*
X138654254Y-86202670D01*
X138604704Y-85998424D01*
X138564932Y-85911335D01*
X138517401Y-85807256D01*
X138517398Y-85807251D01*
X138517397Y-85807250D01*
X138517396Y-85807247D01*
X138395486Y-85636048D01*
X138395484Y-85636046D01*
X138395479Y-85636040D01*
X138243379Y-85491014D01*
X138066574Y-85377388D01*
X137871455Y-85299274D01*
X137665086Y-85259500D01*
X137665085Y-85259500D01*
X136707575Y-85259500D01*
X136550781Y-85274472D01*
X136550782Y-85274472D01*
X136550778Y-85274473D01*
X136349127Y-85333683D01*
X136162313Y-85429991D01*
X135997116Y-85559905D01*
X135997112Y-85559909D01*
X135859478Y-85718746D01*
X135754398Y-85900750D01*
X135685656Y-86099365D01*
X135685656Y-86099367D01*
X135670804Y-86202670D01*
X135655746Y-86307401D01*
X127074745Y-86307401D01*
X127060063Y-86139592D01*
X126998903Y-85911337D01*
X126899035Y-85697171D01*
X126893425Y-85689158D01*
X126763494Y-85503597D01*
X126596402Y-85336506D01*
X126596401Y-85336505D01*
X126410405Y-85206269D01*
X126366781Y-85151692D01*
X126359588Y-85082193D01*
X126391110Y-85019839D01*
X126410405Y-85003119D01*
X126596082Y-84873105D01*
X126763105Y-84706082D01*
X126898600Y-84512578D01*
X126998429Y-84298492D01*
X126998432Y-84298486D01*
X127055636Y-84085000D01*
X126158686Y-84085000D01*
X126184493Y-84044844D01*
X126225000Y-83906889D01*
X126225000Y-83767401D01*
X135655746Y-83767401D01*
X135665745Y-83977327D01*
X135715296Y-84181578D01*
X135715298Y-84181582D01*
X135802598Y-84372743D01*
X135802601Y-84372748D01*
X135802602Y-84372750D01*
X135802604Y-84372753D01*
X135907747Y-84520406D01*
X135924515Y-84543953D01*
X135924520Y-84543959D01*
X136076620Y-84688985D01*
X136171578Y-84750011D01*
X136253428Y-84802613D01*
X136448543Y-84880725D01*
X136551729Y-84900612D01*
X136654914Y-84920500D01*
X136654915Y-84920500D01*
X137612419Y-84920500D01*
X137612425Y-84920500D01*
X137769218Y-84905528D01*
X137970875Y-84846316D01*
X138157682Y-84750011D01*
X138322886Y-84620092D01*
X138460519Y-84461256D01*
X138565604Y-84279244D01*
X138634344Y-84080633D01*
X138664254Y-83872602D01*
X138654254Y-83662670D01*
X138604704Y-83458424D01*
X138604701Y-83458417D01*
X138517401Y-83267256D01*
X138517398Y-83267251D01*
X138517397Y-83267250D01*
X138517396Y-83267247D01*
X138395486Y-83096048D01*
X138395484Y-83096046D01*
X138395479Y-83096040D01*
X138243379Y-82951014D01*
X138066574Y-82837388D01*
X137871455Y-82759274D01*
X137665086Y-82719500D01*
X137665085Y-82719500D01*
X136707575Y-82719500D01*
X136550781Y-82734472D01*
X136550782Y-82734472D01*
X136550778Y-82734473D01*
X136349127Y-82793683D01*
X136162313Y-82889991D01*
X135997116Y-83019905D01*
X135997112Y-83019909D01*
X135859478Y-83178746D01*
X135754398Y-83360750D01*
X135685656Y-83559365D01*
X135685656Y-83559367D01*
X135656363Y-83763111D01*
X135655746Y-83767401D01*
X126225000Y-83767401D01*
X126225000Y-83763111D01*
X126184493Y-83625156D01*
X126158686Y-83585000D01*
X127055636Y-83585000D01*
X127055635Y-83584999D01*
X126998432Y-83371513D01*
X126998429Y-83371507D01*
X126898600Y-83157422D01*
X126898599Y-83157420D01*
X126763113Y-82963926D01*
X126763108Y-82963920D01*
X126596078Y-82796890D01*
X126410405Y-82666879D01*
X126366780Y-82612302D01*
X126359588Y-82542804D01*
X126391110Y-82480449D01*
X126410406Y-82463730D01*
X126596401Y-82333495D01*
X126763495Y-82166401D01*
X126899035Y-81972830D01*
X126998903Y-81758663D01*
X127060063Y-81530408D01*
X127080659Y-81295000D01*
X127074745Y-81227401D01*
X135655746Y-81227401D01*
X135665745Y-81437327D01*
X135715296Y-81641578D01*
X135715298Y-81641582D01*
X135802598Y-81832743D01*
X135802601Y-81832748D01*
X135802602Y-81832750D01*
X135802604Y-81832753D01*
X135902355Y-81972834D01*
X135924515Y-82003953D01*
X135924520Y-82003959D01*
X136076620Y-82148985D01*
X136171578Y-82210011D01*
X136253428Y-82262613D01*
X136448543Y-82340725D01*
X136551728Y-82360612D01*
X136654914Y-82380500D01*
X136654915Y-82380500D01*
X137612419Y-82380500D01*
X137612425Y-82380500D01*
X137769218Y-82365528D01*
X137970875Y-82306316D01*
X138157682Y-82210011D01*
X138322886Y-82080092D01*
X138460519Y-81921256D01*
X138565604Y-81739244D01*
X138634344Y-81540633D01*
X138664254Y-81332602D01*
X138654254Y-81122670D01*
X138604704Y-80918424D01*
X138564932Y-80831335D01*
X138517401Y-80727256D01*
X138517398Y-80727251D01*
X138517397Y-80727250D01*
X138517396Y-80727247D01*
X138395486Y-80556048D01*
X138395484Y-80556046D01*
X138395479Y-80556040D01*
X138243379Y-80411014D01*
X138066574Y-80297388D01*
X137871455Y-80219274D01*
X137665086Y-80179500D01*
X137665085Y-80179500D01*
X136707575Y-80179500D01*
X136550782Y-80194472D01*
X136550778Y-80194473D01*
X136349127Y-80253683D01*
X136162313Y-80349991D01*
X135997116Y-80479905D01*
X135997112Y-80479909D01*
X135859478Y-80638746D01*
X135754398Y-80820750D01*
X135685656Y-81019365D01*
X135685656Y-81019367D01*
X135670804Y-81122670D01*
X135655746Y-81227401D01*
X127074745Y-81227401D01*
X127060063Y-81059592D01*
X126998903Y-80831337D01*
X126899035Y-80617171D01*
X126856237Y-80556048D01*
X126763494Y-80423597D01*
X126596402Y-80256506D01*
X126596395Y-80256501D01*
X126402834Y-80120967D01*
X126402830Y-80120965D01*
X126402828Y-80120964D01*
X126188663Y-80021097D01*
X126188659Y-80021096D01*
X126188655Y-80021094D01*
X125960413Y-79959938D01*
X125960403Y-79959936D01*
X125725001Y-79939341D01*
X125724999Y-79939341D01*
X125489596Y-79959936D01*
X125489586Y-79959938D01*
X125261344Y-80021094D01*
X125261335Y-80021098D01*
X125047171Y-80120964D01*
X125047169Y-80120965D01*
X124853600Y-80256503D01*
X124731673Y-80378430D01*
X124670350Y-80411914D01*
X124600658Y-80406930D01*
X124544725Y-80365058D01*
X124527810Y-80334081D01*
X124478797Y-80202671D01*
X124478793Y-80202664D01*
X124392547Y-80087455D01*
X124392544Y-80087452D01*
X124277335Y-80001206D01*
X124277328Y-80001202D01*
X124142482Y-79950908D01*
X124142483Y-79950908D01*
X124082883Y-79944501D01*
X124082881Y-79944500D01*
X124082873Y-79944500D01*
X124082864Y-79944500D01*
X122287129Y-79944500D01*
X122287123Y-79944501D01*
X122227516Y-79950908D01*
X122092671Y-80001202D01*
X122092664Y-80001206D01*
X121977455Y-80087452D01*
X121977452Y-80087455D01*
X121891206Y-80202664D01*
X121891202Y-80202671D01*
X121840908Y-80337517D01*
X121834501Y-80397116D01*
X121834500Y-80397135D01*
X121834500Y-82192870D01*
X121834501Y-82192876D01*
X121840908Y-82252483D01*
X121891202Y-82387328D01*
X121891206Y-82387335D01*
X121977452Y-82502544D01*
X121977455Y-82502547D01*
X122092664Y-82588793D01*
X122092671Y-82588797D01*
X122224081Y-82637810D01*
X122280015Y-82679681D01*
X122304432Y-82745145D01*
X122289580Y-82813418D01*
X122268430Y-82841673D01*
X122146503Y-82963600D01*
X122010965Y-83157169D01*
X122010964Y-83157171D01*
X121911098Y-83371335D01*
X121911094Y-83371344D01*
X121849938Y-83599586D01*
X121849936Y-83599596D01*
X121829341Y-83834999D01*
X121829341Y-83835000D01*
X121849936Y-84070403D01*
X121849938Y-84070413D01*
X121911094Y-84298655D01*
X121911096Y-84298659D01*
X121911097Y-84298663D01*
X121994155Y-84476781D01*
X122010965Y-84512830D01*
X122010967Y-84512834D01*
X122086072Y-84620094D01*
X122146501Y-84706396D01*
X122146506Y-84706402D01*
X122313597Y-84873493D01*
X122313603Y-84873498D01*
X122499158Y-85003425D01*
X122542783Y-85058002D01*
X122549977Y-85127500D01*
X122518454Y-85189855D01*
X122499158Y-85206575D01*
X122313597Y-85336505D01*
X122146505Y-85503597D01*
X122010965Y-85697169D01*
X122010964Y-85697171D01*
X121911098Y-85911335D01*
X121911094Y-85911344D01*
X121849938Y-86139586D01*
X121849936Y-86139596D01*
X121829341Y-86374999D01*
X121829341Y-86375000D01*
X121849936Y-86610403D01*
X121849938Y-86610413D01*
X121911094Y-86838655D01*
X121911096Y-86838659D01*
X121911097Y-86838663D01*
X121945644Y-86912748D01*
X122010965Y-87052830D01*
X122010967Y-87052834D01*
X122086072Y-87160094D01*
X122146501Y-87246396D01*
X122146506Y-87246402D01*
X122313597Y-87413493D01*
X122313603Y-87413498D01*
X122499158Y-87543425D01*
X122542783Y-87598002D01*
X122549977Y-87667500D01*
X122518454Y-87729855D01*
X122499158Y-87746575D01*
X122313597Y-87876505D01*
X122146505Y-88043597D01*
X122010965Y-88237169D01*
X122010964Y-88237171D01*
X121911098Y-88451335D01*
X121911094Y-88451344D01*
X121849938Y-88679586D01*
X121849936Y-88679596D01*
X121829341Y-88914999D01*
X121829341Y-88915000D01*
X121849936Y-89150403D01*
X121849938Y-89150413D01*
X121911094Y-89378655D01*
X121911096Y-89378659D01*
X121911097Y-89378663D01*
X121945644Y-89452748D01*
X122010965Y-89592830D01*
X122010967Y-89592834D01*
X122086072Y-89700094D01*
X122146501Y-89786396D01*
X122146506Y-89786402D01*
X122313597Y-89953493D01*
X122313603Y-89953498D01*
X122499158Y-90083425D01*
X122542783Y-90138002D01*
X122549977Y-90207500D01*
X122518454Y-90269855D01*
X122499158Y-90286575D01*
X122313597Y-90416505D01*
X122146505Y-90583597D01*
X122010965Y-90777169D01*
X122010964Y-90777171D01*
X121911098Y-90991335D01*
X121911094Y-90991344D01*
X121849938Y-91219586D01*
X121849936Y-91219596D01*
X121829341Y-91454999D01*
X121829341Y-91455000D01*
X121849936Y-91690403D01*
X121849938Y-91690413D01*
X121911094Y-91918655D01*
X121911096Y-91918659D01*
X121911097Y-91918663D01*
X121945644Y-91992748D01*
X122010965Y-92132830D01*
X122010967Y-92132834D01*
X122086072Y-92240094D01*
X122146501Y-92326396D01*
X122146506Y-92326402D01*
X122313597Y-92493493D01*
X122313603Y-92493498D01*
X122499158Y-92623425D01*
X122542783Y-92678002D01*
X122549977Y-92747500D01*
X122518454Y-92809855D01*
X122499158Y-92826575D01*
X122313597Y-92956505D01*
X122146505Y-93123597D01*
X122010965Y-93317169D01*
X122010964Y-93317171D01*
X121911098Y-93531335D01*
X121911094Y-93531344D01*
X121849938Y-93759586D01*
X121849936Y-93759596D01*
X121829341Y-93994999D01*
X121829341Y-93995000D01*
X121849936Y-94230403D01*
X121849938Y-94230413D01*
X121911094Y-94458655D01*
X121911096Y-94458659D01*
X121911097Y-94458663D01*
X121945644Y-94532748D01*
X122010965Y-94672830D01*
X122010967Y-94672834D01*
X122086072Y-94780094D01*
X122146501Y-94866396D01*
X122146506Y-94866402D01*
X122313597Y-95033493D01*
X122313603Y-95033498D01*
X122499158Y-95163425D01*
X122542783Y-95218002D01*
X122549977Y-95287500D01*
X122518454Y-95349855D01*
X122499158Y-95366575D01*
X122313597Y-95496505D01*
X122146505Y-95663597D01*
X122010965Y-95857169D01*
X122010964Y-95857171D01*
X121911098Y-96071335D01*
X121911094Y-96071344D01*
X121849938Y-96299586D01*
X121849936Y-96299596D01*
X121829341Y-96534999D01*
X121829341Y-96535000D01*
X121849936Y-96770403D01*
X121849938Y-96770413D01*
X121911094Y-96998655D01*
X121911096Y-96998659D01*
X121911097Y-96998663D01*
X121945644Y-97072748D01*
X122010965Y-97212830D01*
X122010967Y-97212834D01*
X122086072Y-97320094D01*
X122146501Y-97406396D01*
X122146506Y-97406402D01*
X122313597Y-97573493D01*
X122313603Y-97573498D01*
X122499158Y-97703425D01*
X122542783Y-97758002D01*
X122549977Y-97827500D01*
X122518454Y-97889855D01*
X122499158Y-97906575D01*
X122313597Y-98036505D01*
X122146505Y-98203597D01*
X122010965Y-98397169D01*
X122010964Y-98397171D01*
X121911098Y-98611335D01*
X121911094Y-98611344D01*
X121849938Y-98839586D01*
X121849936Y-98839596D01*
X121829341Y-99074999D01*
X121829341Y-99075000D01*
X113262463Y-99075000D01*
X113254254Y-98902670D01*
X113204704Y-98698424D01*
X113204701Y-98698417D01*
X113117401Y-98507256D01*
X113117398Y-98507251D01*
X113117397Y-98507250D01*
X113117396Y-98507247D01*
X112995486Y-98336048D01*
X112995484Y-98336046D01*
X112995479Y-98336040D01*
X112843379Y-98191014D01*
X112666574Y-98077388D01*
X112471455Y-97999274D01*
X112265086Y-97959500D01*
X112265085Y-97959500D01*
X111307575Y-97959500D01*
X111150781Y-97974472D01*
X111150782Y-97974472D01*
X111150778Y-97974473D01*
X110949127Y-98033683D01*
X110762313Y-98129991D01*
X110597116Y-98259905D01*
X110597112Y-98259909D01*
X110459478Y-98418746D01*
X110354398Y-98600750D01*
X110285656Y-98799365D01*
X110285656Y-98799367D01*
X110256363Y-99003111D01*
X110255746Y-99007401D01*
X101600499Y-99007401D01*
X101600499Y-96467401D01*
X110255746Y-96467401D01*
X110265745Y-96677327D01*
X110315296Y-96881578D01*
X110315298Y-96881582D01*
X110402598Y-97072743D01*
X110402601Y-97072748D01*
X110402602Y-97072750D01*
X110402604Y-97072753D01*
X110524514Y-97243952D01*
X110524515Y-97243953D01*
X110524520Y-97243959D01*
X110676620Y-97388985D01*
X110771578Y-97450011D01*
X110853428Y-97502613D01*
X111048543Y-97580725D01*
X111151729Y-97600612D01*
X111254914Y-97620500D01*
X111254915Y-97620500D01*
X112212419Y-97620500D01*
X112212425Y-97620500D01*
X112369218Y-97605528D01*
X112570875Y-97546316D01*
X112757682Y-97450011D01*
X112922886Y-97320092D01*
X113060519Y-97161256D01*
X113165604Y-96979244D01*
X113234344Y-96780633D01*
X113264254Y-96572602D01*
X113254254Y-96362670D01*
X113204704Y-96158424D01*
X113164932Y-96071335D01*
X113117401Y-95967256D01*
X113117398Y-95967251D01*
X113117397Y-95967250D01*
X113117396Y-95967247D01*
X112995486Y-95796048D01*
X112995484Y-95796046D01*
X112995479Y-95796040D01*
X112843379Y-95651014D01*
X112666574Y-95537388D01*
X112471455Y-95459274D01*
X112265086Y-95419500D01*
X112265085Y-95419500D01*
X111307575Y-95419500D01*
X111150781Y-95434472D01*
X111150782Y-95434472D01*
X111150778Y-95434473D01*
X110949127Y-95493683D01*
X110762313Y-95589991D01*
X110597116Y-95719905D01*
X110597112Y-95719909D01*
X110459478Y-95878746D01*
X110354398Y-96060750D01*
X110285656Y-96259365D01*
X110285656Y-96259367D01*
X110270804Y-96362670D01*
X110255746Y-96467401D01*
X101600499Y-96467401D01*
X101600499Y-93927401D01*
X110255746Y-93927401D01*
X110265745Y-94137327D01*
X110315296Y-94341578D01*
X110315298Y-94341582D01*
X110402598Y-94532743D01*
X110402601Y-94532748D01*
X110402602Y-94532750D01*
X110402604Y-94532753D01*
X110524514Y-94703952D01*
X110524515Y-94703953D01*
X110524520Y-94703959D01*
X110676620Y-94848985D01*
X110771578Y-94910011D01*
X110853428Y-94962613D01*
X111048543Y-95040725D01*
X111151729Y-95060612D01*
X111254914Y-95080500D01*
X111254915Y-95080500D01*
X112212419Y-95080500D01*
X112212425Y-95080500D01*
X112369218Y-95065528D01*
X112570875Y-95006316D01*
X112757682Y-94910011D01*
X112922886Y-94780092D01*
X113060519Y-94621256D01*
X113165604Y-94439244D01*
X113234344Y-94240633D01*
X113264254Y-94032602D01*
X113254254Y-93822670D01*
X113204704Y-93618424D01*
X113164932Y-93531335D01*
X113117401Y-93427256D01*
X113117398Y-93427251D01*
X113117397Y-93427250D01*
X113117396Y-93427247D01*
X112995486Y-93256048D01*
X112995484Y-93256046D01*
X112995479Y-93256040D01*
X112843379Y-93111014D01*
X112666574Y-92997388D01*
X112471455Y-92919274D01*
X112265086Y-92879500D01*
X112265085Y-92879500D01*
X111307575Y-92879500D01*
X111150781Y-92894472D01*
X111150782Y-92894472D01*
X111150778Y-92894473D01*
X110949127Y-92953683D01*
X110762313Y-93049991D01*
X110597116Y-93179905D01*
X110597112Y-93179909D01*
X110459478Y-93338746D01*
X110354398Y-93520750D01*
X110285656Y-93719365D01*
X110285656Y-93719367D01*
X110270804Y-93822670D01*
X110255746Y-93927401D01*
X101600499Y-93927401D01*
X101600499Y-91387401D01*
X110255746Y-91387401D01*
X110265745Y-91597327D01*
X110315296Y-91801578D01*
X110315298Y-91801582D01*
X110402598Y-91992743D01*
X110402601Y-91992748D01*
X110402602Y-91992750D01*
X110402604Y-91992753D01*
X110524514Y-92163952D01*
X110524515Y-92163953D01*
X110524520Y-92163959D01*
X110676620Y-92308985D01*
X110771578Y-92370011D01*
X110853428Y-92422613D01*
X111048543Y-92500725D01*
X111151729Y-92520612D01*
X111254914Y-92540500D01*
X111254915Y-92540500D01*
X112212419Y-92540500D01*
X112212425Y-92540500D01*
X112369218Y-92525528D01*
X112570875Y-92466316D01*
X112757682Y-92370011D01*
X112922886Y-92240092D01*
X113060519Y-92081256D01*
X113165604Y-91899244D01*
X113234344Y-91700633D01*
X113264254Y-91492602D01*
X113254254Y-91282670D01*
X113204704Y-91078424D01*
X113164932Y-90991335D01*
X113117401Y-90887256D01*
X113117398Y-90887251D01*
X113117397Y-90887250D01*
X113117396Y-90887247D01*
X112995486Y-90716048D01*
X112995484Y-90716046D01*
X112995479Y-90716040D01*
X112843379Y-90571014D01*
X112666574Y-90457388D01*
X112471455Y-90379274D01*
X112265086Y-90339500D01*
X112265085Y-90339500D01*
X111307575Y-90339500D01*
X111150781Y-90354472D01*
X111150782Y-90354472D01*
X111150778Y-90354473D01*
X110949127Y-90413683D01*
X110762313Y-90509991D01*
X110597116Y-90639905D01*
X110597112Y-90639909D01*
X110459478Y-90798746D01*
X110354398Y-90980750D01*
X110285656Y-91179365D01*
X110285656Y-91179367D01*
X110270804Y-91282670D01*
X110255746Y-91387401D01*
X101600499Y-91387401D01*
X101600499Y-88847401D01*
X110255746Y-88847401D01*
X110265745Y-89057327D01*
X110315296Y-89261578D01*
X110315298Y-89261582D01*
X110402598Y-89452743D01*
X110402601Y-89452748D01*
X110402602Y-89452750D01*
X110402604Y-89452753D01*
X110524514Y-89623952D01*
X110524515Y-89623953D01*
X110524520Y-89623959D01*
X110676620Y-89768985D01*
X110771578Y-89830011D01*
X110853428Y-89882613D01*
X111048543Y-89960725D01*
X111151729Y-89980612D01*
X111254914Y-90000500D01*
X111254915Y-90000500D01*
X112212419Y-90000500D01*
X112212425Y-90000500D01*
X112369218Y-89985528D01*
X112570875Y-89926316D01*
X112757682Y-89830011D01*
X112922886Y-89700092D01*
X113060519Y-89541256D01*
X113165604Y-89359244D01*
X113234344Y-89160633D01*
X113264254Y-88952602D01*
X113254254Y-88742670D01*
X113204704Y-88538424D01*
X113164932Y-88451335D01*
X113117401Y-88347256D01*
X113117398Y-88347251D01*
X113117397Y-88347250D01*
X113117396Y-88347247D01*
X112995486Y-88176048D01*
X112995484Y-88176046D01*
X112995479Y-88176040D01*
X112843379Y-88031014D01*
X112666574Y-87917388D01*
X112471455Y-87839274D01*
X112265086Y-87799500D01*
X112265085Y-87799500D01*
X111307575Y-87799500D01*
X111150781Y-87814472D01*
X111150782Y-87814472D01*
X111150778Y-87814473D01*
X110949127Y-87873683D01*
X110762313Y-87969991D01*
X110597116Y-88099905D01*
X110597112Y-88099909D01*
X110459478Y-88258746D01*
X110354398Y-88440750D01*
X110285656Y-88639365D01*
X110285656Y-88639367D01*
X110270804Y-88742670D01*
X110255746Y-88847401D01*
X101600499Y-88847401D01*
X101600499Y-86307401D01*
X110255746Y-86307401D01*
X110265745Y-86517327D01*
X110315296Y-86721578D01*
X110315298Y-86721582D01*
X110402598Y-86912743D01*
X110402601Y-86912748D01*
X110402602Y-86912750D01*
X110402604Y-86912753D01*
X110524514Y-87083952D01*
X110524515Y-87083953D01*
X110524520Y-87083959D01*
X110676620Y-87228985D01*
X110771578Y-87290011D01*
X110853428Y-87342613D01*
X111048543Y-87420725D01*
X111151729Y-87440612D01*
X111254914Y-87460500D01*
X111254915Y-87460500D01*
X112212419Y-87460500D01*
X112212425Y-87460500D01*
X112369218Y-87445528D01*
X112570875Y-87386316D01*
X112757682Y-87290011D01*
X112922886Y-87160092D01*
X113060519Y-87001256D01*
X113165604Y-86819244D01*
X113234344Y-86620633D01*
X113264254Y-86412602D01*
X113254254Y-86202670D01*
X113204704Y-85998424D01*
X113164932Y-85911335D01*
X113117401Y-85807256D01*
X113117398Y-85807251D01*
X113117397Y-85807250D01*
X113117396Y-85807247D01*
X112995486Y-85636048D01*
X112995484Y-85636046D01*
X112995479Y-85636040D01*
X112843379Y-85491014D01*
X112666574Y-85377388D01*
X112471455Y-85299274D01*
X112265086Y-85259500D01*
X112265085Y-85259500D01*
X111307575Y-85259500D01*
X111150781Y-85274472D01*
X111150782Y-85274472D01*
X111150778Y-85274473D01*
X110949127Y-85333683D01*
X110762313Y-85429991D01*
X110597116Y-85559905D01*
X110597112Y-85559909D01*
X110459478Y-85718746D01*
X110354398Y-85900750D01*
X110285656Y-86099365D01*
X110285656Y-86099367D01*
X110270804Y-86202670D01*
X110255746Y-86307401D01*
X101600499Y-86307401D01*
X101600499Y-83767401D01*
X110255746Y-83767401D01*
X110265745Y-83977327D01*
X110315296Y-84181578D01*
X110315298Y-84181582D01*
X110402598Y-84372743D01*
X110402601Y-84372748D01*
X110402602Y-84372750D01*
X110402604Y-84372753D01*
X110507747Y-84520406D01*
X110524515Y-84543953D01*
X110524520Y-84543959D01*
X110676620Y-84688985D01*
X110771578Y-84750011D01*
X110853428Y-84802613D01*
X111048543Y-84880725D01*
X111151729Y-84900612D01*
X111254914Y-84920500D01*
X111254915Y-84920500D01*
X112212419Y-84920500D01*
X112212425Y-84920500D01*
X112369218Y-84905528D01*
X112570875Y-84846316D01*
X112757682Y-84750011D01*
X112922886Y-84620092D01*
X113060519Y-84461256D01*
X113165604Y-84279244D01*
X113234344Y-84080633D01*
X113264254Y-83872602D01*
X113254254Y-83662670D01*
X113204704Y-83458424D01*
X113204701Y-83458417D01*
X113117401Y-83267256D01*
X113117398Y-83267251D01*
X113117397Y-83267250D01*
X113117396Y-83267247D01*
X112995486Y-83096048D01*
X112995484Y-83096046D01*
X112995479Y-83096040D01*
X112843379Y-82951014D01*
X112666574Y-82837388D01*
X112471455Y-82759274D01*
X112265086Y-82719500D01*
X112265085Y-82719500D01*
X111307575Y-82719500D01*
X111150782Y-82734472D01*
X111150778Y-82734473D01*
X110949127Y-82793683D01*
X110762313Y-82889991D01*
X110597116Y-83019905D01*
X110597112Y-83019909D01*
X110459478Y-83178746D01*
X110354398Y-83360750D01*
X110285656Y-83559365D01*
X110285656Y-83559367D01*
X110256363Y-83763111D01*
X110255746Y-83767401D01*
X101600499Y-83767401D01*
X101600499Y-81227401D01*
X110255746Y-81227401D01*
X110265745Y-81437327D01*
X110315296Y-81641578D01*
X110315298Y-81641582D01*
X110402598Y-81832743D01*
X110402601Y-81832748D01*
X110402602Y-81832750D01*
X110402604Y-81832753D01*
X110502355Y-81972834D01*
X110524515Y-82003953D01*
X110524520Y-82003959D01*
X110676620Y-82148985D01*
X110771578Y-82210011D01*
X110853428Y-82262613D01*
X111048543Y-82340725D01*
X111151729Y-82360612D01*
X111254914Y-82380500D01*
X111254915Y-82380500D01*
X112212419Y-82380500D01*
X112212425Y-82380500D01*
X112369218Y-82365528D01*
X112570875Y-82306316D01*
X112757682Y-82210011D01*
X112922886Y-82080092D01*
X113060519Y-81921256D01*
X113165604Y-81739244D01*
X113234344Y-81540633D01*
X113264254Y-81332602D01*
X113254254Y-81122670D01*
X113204704Y-80918424D01*
X113164932Y-80831335D01*
X113117401Y-80727256D01*
X113117398Y-80727251D01*
X113117397Y-80727250D01*
X113117396Y-80727247D01*
X112995486Y-80556048D01*
X112995484Y-80556046D01*
X112995479Y-80556040D01*
X112843379Y-80411014D01*
X112666574Y-80297388D01*
X112471455Y-80219274D01*
X112265086Y-80179500D01*
X112265085Y-80179500D01*
X111307575Y-80179500D01*
X111150782Y-80194472D01*
X111150778Y-80194473D01*
X110949127Y-80253683D01*
X110762313Y-80349991D01*
X110597116Y-80479905D01*
X110597112Y-80479909D01*
X110459478Y-80638746D01*
X110354398Y-80820750D01*
X110285656Y-81019365D01*
X110285656Y-81019367D01*
X110270804Y-81122670D01*
X110255746Y-81227401D01*
X101600499Y-81227401D01*
X101600499Y-78687401D01*
X110255746Y-78687401D01*
X110265745Y-78897327D01*
X110315296Y-79101578D01*
X110315298Y-79101582D01*
X110402598Y-79292743D01*
X110402601Y-79292748D01*
X110402602Y-79292750D01*
X110402604Y-79292753D01*
X110465627Y-79381256D01*
X110524515Y-79463953D01*
X110524520Y-79463959D01*
X110676620Y-79608985D01*
X110771578Y-79670011D01*
X110853428Y-79722613D01*
X111048543Y-79800725D01*
X111151729Y-79820612D01*
X111254914Y-79840500D01*
X111254915Y-79840500D01*
X112212419Y-79840500D01*
X112212425Y-79840500D01*
X112369218Y-79825528D01*
X112570875Y-79766316D01*
X112757682Y-79670011D01*
X112922886Y-79540092D01*
X113060519Y-79381256D01*
X113165604Y-79199244D01*
X113234344Y-79000633D01*
X113264254Y-78792602D01*
X113259243Y-78687401D01*
X135655746Y-78687401D01*
X135665745Y-78897327D01*
X135715296Y-79101578D01*
X135715298Y-79101582D01*
X135802598Y-79292743D01*
X135802601Y-79292748D01*
X135802602Y-79292750D01*
X135802604Y-79292753D01*
X135865627Y-79381256D01*
X135924515Y-79463953D01*
X135924520Y-79463959D01*
X136076620Y-79608985D01*
X136171578Y-79670011D01*
X136253428Y-79722613D01*
X136448543Y-79800725D01*
X136551728Y-79820612D01*
X136654914Y-79840500D01*
X136654915Y-79840500D01*
X137612419Y-79840500D01*
X137612425Y-79840500D01*
X137769218Y-79825528D01*
X137970875Y-79766316D01*
X138157682Y-79670011D01*
X138322886Y-79540092D01*
X138460519Y-79381256D01*
X138565604Y-79199244D01*
X138634344Y-79000633D01*
X138664254Y-78792602D01*
X138654254Y-78582670D01*
X138604704Y-78378424D01*
X138604701Y-78378417D01*
X138517401Y-78187256D01*
X138517398Y-78187251D01*
X138517397Y-78187250D01*
X138517396Y-78187247D01*
X138395486Y-78016048D01*
X138395484Y-78016046D01*
X138395479Y-78016040D01*
X138243379Y-77871014D01*
X138066574Y-77757388D01*
X137871455Y-77679274D01*
X137665086Y-77639500D01*
X137665085Y-77639500D01*
X136707575Y-77639500D01*
X136550781Y-77654472D01*
X136550782Y-77654472D01*
X136550778Y-77654473D01*
X136349127Y-77713683D01*
X136162313Y-77809991D01*
X135997116Y-77939905D01*
X135997112Y-77939909D01*
X135859478Y-78098746D01*
X135754398Y-78280750D01*
X135685656Y-78479365D01*
X135685656Y-78479367D01*
X135670804Y-78582670D01*
X135655746Y-78687401D01*
X113259243Y-78687401D01*
X113254254Y-78582670D01*
X113204704Y-78378424D01*
X113204701Y-78378417D01*
X113117401Y-78187256D01*
X113117398Y-78187251D01*
X113117397Y-78187250D01*
X113117396Y-78187247D01*
X112995486Y-78016048D01*
X112995484Y-78016046D01*
X112995479Y-78016040D01*
X112843379Y-77871014D01*
X112666574Y-77757388D01*
X112471455Y-77679274D01*
X112265086Y-77639500D01*
X112265085Y-77639500D01*
X111307575Y-77639500D01*
X111150781Y-77654472D01*
X111150782Y-77654472D01*
X111150778Y-77654473D01*
X110949127Y-77713683D01*
X110762313Y-77809991D01*
X110597116Y-77939905D01*
X110597112Y-77939909D01*
X110459478Y-78098746D01*
X110354398Y-78280750D01*
X110285656Y-78479365D01*
X110285656Y-78479367D01*
X110270804Y-78582670D01*
X110255746Y-78687401D01*
X101600499Y-78687401D01*
X101600499Y-76147401D01*
X110255746Y-76147401D01*
X110265745Y-76357327D01*
X110315296Y-76561578D01*
X110315298Y-76561582D01*
X110402598Y-76752743D01*
X110402601Y-76752748D01*
X110402602Y-76752750D01*
X110402604Y-76752753D01*
X110465627Y-76841256D01*
X110524515Y-76923953D01*
X110524520Y-76923959D01*
X110676620Y-77068985D01*
X110771578Y-77130011D01*
X110853428Y-77182613D01*
X111048543Y-77260725D01*
X111151729Y-77280612D01*
X111254914Y-77300500D01*
X111254915Y-77300500D01*
X112212419Y-77300500D01*
X112212425Y-77300500D01*
X112369218Y-77285528D01*
X112570875Y-77226316D01*
X112757682Y-77130011D01*
X112922886Y-77000092D01*
X113060519Y-76841256D01*
X113165604Y-76659244D01*
X113234344Y-76460633D01*
X113264254Y-76252602D01*
X113259243Y-76147401D01*
X135655746Y-76147401D01*
X135665745Y-76357327D01*
X135715296Y-76561578D01*
X135715298Y-76561582D01*
X135802598Y-76752743D01*
X135802601Y-76752748D01*
X135802602Y-76752750D01*
X135802604Y-76752753D01*
X135865627Y-76841256D01*
X135924515Y-76923953D01*
X135924520Y-76923959D01*
X136076620Y-77068985D01*
X136171578Y-77130011D01*
X136253428Y-77182613D01*
X136448543Y-77260725D01*
X136551728Y-77280612D01*
X136654914Y-77300500D01*
X136654915Y-77300500D01*
X137612419Y-77300500D01*
X137612425Y-77300500D01*
X137769218Y-77285528D01*
X137970875Y-77226316D01*
X138157682Y-77130011D01*
X138322886Y-77000092D01*
X138460519Y-76841256D01*
X138565604Y-76659244D01*
X138634344Y-76460633D01*
X138664254Y-76252602D01*
X138654254Y-76042670D01*
X138604704Y-75838424D01*
X138604701Y-75838417D01*
X138517401Y-75647256D01*
X138517398Y-75647251D01*
X138517397Y-75647250D01*
X138517396Y-75647247D01*
X138395486Y-75476048D01*
X138395484Y-75476046D01*
X138395479Y-75476040D01*
X138243379Y-75331014D01*
X138066574Y-75217388D01*
X137871455Y-75139274D01*
X137665086Y-75099500D01*
X137665085Y-75099500D01*
X136707575Y-75099500D01*
X136550781Y-75114472D01*
X136550782Y-75114472D01*
X136550778Y-75114473D01*
X136349127Y-75173683D01*
X136162313Y-75269991D01*
X135997116Y-75399905D01*
X135997112Y-75399909D01*
X135859478Y-75558746D01*
X135754398Y-75740750D01*
X135685656Y-75939365D01*
X135685656Y-75939367D01*
X135670804Y-76042670D01*
X135655746Y-76147401D01*
X113259243Y-76147401D01*
X113254254Y-76042670D01*
X113204704Y-75838424D01*
X113204701Y-75838417D01*
X113117401Y-75647256D01*
X113117398Y-75647251D01*
X113117397Y-75647250D01*
X113117396Y-75647247D01*
X112995486Y-75476048D01*
X112995484Y-75476046D01*
X112995479Y-75476040D01*
X112843379Y-75331014D01*
X112666574Y-75217388D01*
X112471455Y-75139274D01*
X112265086Y-75099500D01*
X112265085Y-75099500D01*
X111307575Y-75099500D01*
X111150781Y-75114472D01*
X111150782Y-75114472D01*
X111150778Y-75114473D01*
X110949127Y-75173683D01*
X110762313Y-75269991D01*
X110597116Y-75399905D01*
X110597112Y-75399909D01*
X110459478Y-75558746D01*
X110354398Y-75740750D01*
X110285656Y-75939365D01*
X110285656Y-75939367D01*
X110270804Y-76042670D01*
X110255746Y-76147401D01*
X101600499Y-76147401D01*
X101600499Y-73607401D01*
X110255746Y-73607401D01*
X110265745Y-73817327D01*
X110315296Y-74021578D01*
X110315298Y-74021582D01*
X110402598Y-74212743D01*
X110402601Y-74212748D01*
X110402602Y-74212750D01*
X110402604Y-74212753D01*
X110465627Y-74301256D01*
X110524515Y-74383953D01*
X110524520Y-74383959D01*
X110676620Y-74528985D01*
X110771578Y-74590011D01*
X110853428Y-74642613D01*
X111048543Y-74720725D01*
X111151729Y-74740612D01*
X111254914Y-74760500D01*
X111254915Y-74760500D01*
X112212419Y-74760500D01*
X112212425Y-74760500D01*
X112369218Y-74745528D01*
X112570875Y-74686316D01*
X112757682Y-74590011D01*
X112922886Y-74460092D01*
X113060519Y-74301256D01*
X113165604Y-74119244D01*
X113234344Y-73920633D01*
X113264254Y-73712602D01*
X113259243Y-73607401D01*
X135655746Y-73607401D01*
X135665745Y-73817327D01*
X135715296Y-74021578D01*
X135715298Y-74021582D01*
X135802598Y-74212743D01*
X135802601Y-74212748D01*
X135802602Y-74212750D01*
X135802604Y-74212753D01*
X135865627Y-74301256D01*
X135924515Y-74383953D01*
X135924520Y-74383959D01*
X136076620Y-74528985D01*
X136171578Y-74590011D01*
X136253428Y-74642613D01*
X136448543Y-74720725D01*
X136551728Y-74740612D01*
X136654914Y-74760500D01*
X136654915Y-74760500D01*
X137612419Y-74760500D01*
X137612425Y-74760500D01*
X137769218Y-74745528D01*
X137970875Y-74686316D01*
X138157682Y-74590011D01*
X138322886Y-74460092D01*
X138460519Y-74301256D01*
X138565604Y-74119244D01*
X138634344Y-73920633D01*
X138664254Y-73712602D01*
X138654254Y-73502670D01*
X138604704Y-73298424D01*
X138604701Y-73298417D01*
X138517401Y-73107256D01*
X138517398Y-73107251D01*
X138517397Y-73107250D01*
X138517396Y-73107247D01*
X138395486Y-72936048D01*
X138395484Y-72936046D01*
X138395479Y-72936040D01*
X138243379Y-72791014D01*
X138066574Y-72677388D01*
X137871455Y-72599274D01*
X137665086Y-72559500D01*
X137665085Y-72559500D01*
X136707575Y-72559500D01*
X136550781Y-72574472D01*
X136550782Y-72574472D01*
X136550778Y-72574473D01*
X136349127Y-72633683D01*
X136162313Y-72729991D01*
X135997116Y-72859905D01*
X135997112Y-72859909D01*
X135859478Y-73018746D01*
X135754398Y-73200750D01*
X135685656Y-73399365D01*
X135685656Y-73399367D01*
X135670804Y-73502670D01*
X135655746Y-73607401D01*
X113259243Y-73607401D01*
X113254254Y-73502670D01*
X113204704Y-73298424D01*
X113204701Y-73298417D01*
X113117401Y-73107256D01*
X113117398Y-73107251D01*
X113117397Y-73107250D01*
X113117396Y-73107247D01*
X112995486Y-72936048D01*
X112995484Y-72936046D01*
X112995479Y-72936040D01*
X112843379Y-72791014D01*
X112666574Y-72677388D01*
X112471455Y-72599274D01*
X112265086Y-72559500D01*
X112265085Y-72559500D01*
X111307575Y-72559500D01*
X111150781Y-72574472D01*
X111150782Y-72574472D01*
X111150778Y-72574473D01*
X110949127Y-72633683D01*
X110762313Y-72729991D01*
X110597116Y-72859905D01*
X110597112Y-72859909D01*
X110459478Y-73018746D01*
X110354398Y-73200750D01*
X110285656Y-73399365D01*
X110285656Y-73399367D01*
X110270804Y-73502670D01*
X110255746Y-73607401D01*
X101600499Y-73607401D01*
X101600499Y-71067401D01*
X110255746Y-71067401D01*
X110265745Y-71277327D01*
X110315296Y-71481578D01*
X110315298Y-71481582D01*
X110402598Y-71672743D01*
X110402601Y-71672748D01*
X110402602Y-71672750D01*
X110402604Y-71672753D01*
X110465627Y-71761256D01*
X110524515Y-71843953D01*
X110524520Y-71843959D01*
X110676620Y-71988985D01*
X110771578Y-72050011D01*
X110853428Y-72102613D01*
X111048543Y-72180725D01*
X111151729Y-72200612D01*
X111254914Y-72220500D01*
X111254915Y-72220500D01*
X112212419Y-72220500D01*
X112212425Y-72220500D01*
X112369218Y-72205528D01*
X112570875Y-72146316D01*
X112757682Y-72050011D01*
X112922886Y-71920092D01*
X113060519Y-71761256D01*
X113165604Y-71579244D01*
X113234344Y-71380633D01*
X113264254Y-71172602D01*
X113259243Y-71067401D01*
X135655746Y-71067401D01*
X135665745Y-71277327D01*
X135715296Y-71481578D01*
X135715298Y-71481582D01*
X135802598Y-71672743D01*
X135802601Y-71672748D01*
X135802602Y-71672750D01*
X135802604Y-71672753D01*
X135865627Y-71761256D01*
X135924515Y-71843953D01*
X135924520Y-71843959D01*
X136076620Y-71988985D01*
X136171578Y-72050011D01*
X136253428Y-72102613D01*
X136448543Y-72180725D01*
X136551728Y-72200612D01*
X136654914Y-72220500D01*
X136654915Y-72220500D01*
X137612419Y-72220500D01*
X137612425Y-72220500D01*
X137769218Y-72205528D01*
X137970875Y-72146316D01*
X138157682Y-72050011D01*
X138322886Y-71920092D01*
X138460519Y-71761256D01*
X138565604Y-71579244D01*
X138634344Y-71380633D01*
X138664254Y-71172602D01*
X138654254Y-70962670D01*
X138604704Y-70758424D01*
X138604701Y-70758417D01*
X138517401Y-70567256D01*
X138517398Y-70567251D01*
X138517397Y-70567250D01*
X138517396Y-70567247D01*
X138395486Y-70396048D01*
X138395484Y-70396046D01*
X138395479Y-70396040D01*
X138243379Y-70251014D01*
X138066574Y-70137388D01*
X137871455Y-70059274D01*
X137665086Y-70019500D01*
X137665085Y-70019500D01*
X136707575Y-70019500D01*
X136550781Y-70034472D01*
X136550782Y-70034472D01*
X136550778Y-70034473D01*
X136349127Y-70093683D01*
X136162313Y-70189991D01*
X135997116Y-70319905D01*
X135997112Y-70319909D01*
X135859478Y-70478746D01*
X135754398Y-70660750D01*
X135685656Y-70859365D01*
X135685656Y-70859367D01*
X135670804Y-70962670D01*
X135655746Y-71067401D01*
X113259243Y-71067401D01*
X113254254Y-70962670D01*
X113204704Y-70758424D01*
X113204701Y-70758417D01*
X113117401Y-70567256D01*
X113117398Y-70567251D01*
X113117397Y-70567250D01*
X113117396Y-70567247D01*
X112995486Y-70396048D01*
X112995484Y-70396046D01*
X112995479Y-70396040D01*
X112843379Y-70251014D01*
X112666574Y-70137388D01*
X112471455Y-70059274D01*
X112265086Y-70019500D01*
X112265085Y-70019500D01*
X111307575Y-70019500D01*
X111150781Y-70034472D01*
X111150782Y-70034472D01*
X111150778Y-70034473D01*
X110949127Y-70093683D01*
X110762313Y-70189991D01*
X110597116Y-70319905D01*
X110597112Y-70319909D01*
X110459478Y-70478746D01*
X110354398Y-70660750D01*
X110285656Y-70859365D01*
X110285656Y-70859367D01*
X110270804Y-70962670D01*
X110255746Y-71067401D01*
X101600499Y-71067401D01*
X101600499Y-64771740D01*
X101600548Y-64770000D01*
X102784341Y-64770000D01*
X102804936Y-65005403D01*
X102804938Y-65005413D01*
X102866094Y-65233655D01*
X102866096Y-65233659D01*
X102866097Y-65233663D01*
X102916030Y-65340745D01*
X102965964Y-65447828D01*
X102965965Y-65447830D01*
X103101505Y-65641402D01*
X103268597Y-65808494D01*
X103462169Y-65944034D01*
X103462171Y-65944035D01*
X103676337Y-66043903D01*
X103904592Y-66105063D01*
X104081032Y-66120499D01*
X104081033Y-66120500D01*
X104081034Y-66120500D01*
X104198967Y-66120500D01*
X104198967Y-66120499D01*
X104375408Y-66105063D01*
X104603663Y-66043903D01*
X104817829Y-65944035D01*
X105011401Y-65808495D01*
X105178495Y-65641401D01*
X105314035Y-65447830D01*
X105413903Y-65233663D01*
X105475063Y-65005408D01*
X105495659Y-64770000D01*
X143424341Y-64770000D01*
X143444936Y-65005403D01*
X143444938Y-65005413D01*
X143506094Y-65233655D01*
X143506096Y-65233659D01*
X143506097Y-65233663D01*
X143556030Y-65340746D01*
X143605964Y-65447828D01*
X143605965Y-65447830D01*
X143741505Y-65641402D01*
X143908597Y-65808494D01*
X144102169Y-65944034D01*
X144102171Y-65944035D01*
X144316337Y-66043903D01*
X144544592Y-66105063D01*
X144721032Y-66120499D01*
X144721033Y-66120500D01*
X144721034Y-66120500D01*
X144838967Y-66120500D01*
X144838967Y-66120499D01*
X145015408Y-66105063D01*
X145243663Y-66043903D01*
X145457829Y-65944035D01*
X145651401Y-65808495D01*
X145818495Y-65641401D01*
X145954035Y-65447830D01*
X146053903Y-65233663D01*
X146115063Y-65005408D01*
X146135659Y-64770000D01*
X146115063Y-64534592D01*
X146053903Y-64306337D01*
X145954035Y-64092171D01*
X145954034Y-64092169D01*
X145818494Y-63898597D01*
X145651402Y-63731505D01*
X145457830Y-63595965D01*
X145457828Y-63595964D01*
X145350746Y-63546031D01*
X145243663Y-63496097D01*
X145243659Y-63496096D01*
X145243655Y-63496094D01*
X145015413Y-63434938D01*
X145015403Y-63434936D01*
X144838967Y-63419500D01*
X144838966Y-63419500D01*
X144721034Y-63419500D01*
X144721033Y-63419500D01*
X144544596Y-63434936D01*
X144544586Y-63434938D01*
X144316344Y-63496094D01*
X144316335Y-63496098D01*
X144102171Y-63595964D01*
X144102169Y-63595965D01*
X143908597Y-63731505D01*
X143741506Y-63898597D01*
X143741501Y-63898604D01*
X143605967Y-64092165D01*
X143605965Y-64092169D01*
X143506098Y-64306335D01*
X143506094Y-64306344D01*
X143444938Y-64534586D01*
X143444936Y-64534596D01*
X143424341Y-64769999D01*
X143424341Y-64770000D01*
X105495659Y-64770000D01*
X105475063Y-64534592D01*
X105413903Y-64306337D01*
X105314035Y-64092171D01*
X105314034Y-64092169D01*
X105178494Y-63898597D01*
X105011402Y-63731505D01*
X104817830Y-63595965D01*
X104817828Y-63595964D01*
X104710745Y-63546031D01*
X104603663Y-63496097D01*
X104603659Y-63496096D01*
X104603655Y-63496094D01*
X104375413Y-63434938D01*
X104375403Y-63434936D01*
X104198967Y-63419500D01*
X104198966Y-63419500D01*
X104081034Y-63419500D01*
X104081033Y-63419500D01*
X103904596Y-63434936D01*
X103904586Y-63434938D01*
X103676344Y-63496094D01*
X103676335Y-63496098D01*
X103462171Y-63595964D01*
X103462169Y-63595965D01*
X103268597Y-63731505D01*
X103101506Y-63898597D01*
X103101501Y-63898604D01*
X102965967Y-64092165D01*
X102965965Y-64092169D01*
X102866098Y-64306335D01*
X102866094Y-64306344D01*
X102804938Y-64534586D01*
X102804936Y-64534596D01*
X102784341Y-64769999D01*
X102784341Y-64770000D01*
X101600548Y-64770000D01*
X101600597Y-64768264D01*
X101603484Y-64716835D01*
X101606985Y-64654505D01*
X101617401Y-64482304D01*
X101618160Y-64475704D01*
X101641281Y-64339623D01*
X101668562Y-64190758D01*
X101669960Y-64184810D01*
X101709225Y-64048518D01*
X101709552Y-64047428D01*
X101753264Y-63907155D01*
X101755159Y-63901921D01*
X101810080Y-63769330D01*
X101810732Y-63767820D01*
X101870343Y-63635370D01*
X101872599Y-63630861D01*
X101942393Y-63504579D01*
X101943542Y-63502591D01*
X102018221Y-63379057D01*
X102020701Y-63375274D01*
X102104461Y-63257226D01*
X102106145Y-63254967D01*
X102194932Y-63141638D01*
X102197472Y-63138605D01*
X102294052Y-63030531D01*
X102296373Y-63028077D01*
X102398077Y-62926373D01*
X102400531Y-62924052D01*
X102508605Y-62827472D01*
X102511638Y-62824932D01*
X102624967Y-62736145D01*
X102627226Y-62734461D01*
X102745274Y-62650701D01*
X102749057Y-62648221D01*
X102872591Y-62573542D01*
X102874579Y-62572393D01*
X103000861Y-62502599D01*
X103005370Y-62500343D01*
X103137820Y-62440732D01*
X103139330Y-62440080D01*
X103271921Y-62385159D01*
X103277155Y-62383264D01*
X103417428Y-62339552D01*
X103418518Y-62339225D01*
X103554810Y-62299960D01*
X103560758Y-62298562D01*
X103709626Y-62271281D01*
X103845704Y-62248160D01*
X103852304Y-62247401D01*
X104024288Y-62236998D01*
X104115501Y-62231875D01*
X104138264Y-62230598D01*
X104141740Y-62230500D01*
X144778260Y-62230500D01*
X144781736Y-62230598D01*
G37*
%TD.AperFunction*%
%TD*%
%TA.AperFunction,Conductor*%
%TO.N,/VSPI_CS0*%
G36*
X139433044Y-109071253D02*
G01*
X139439206Y-109077239D01*
X139715747Y-109689928D01*
X139716027Y-109698878D01*
X139713356Y-109703014D01*
X139548014Y-109868356D01*
X139539741Y-109871783D01*
X139534928Y-109870747D01*
X138922239Y-109594206D01*
X138916108Y-109587679D01*
X138916232Y-109579090D01*
X139062437Y-109223802D01*
X139068753Y-109217457D01*
X139424090Y-109071232D01*
X139433044Y-109071253D01*
G37*
%TD.AperFunction*%
%TD*%
%TA.AperFunction,Conductor*%
%TO.N,/VSPI_CS0*%
G36*
X144459199Y-109715530D02*
G01*
X144459457Y-109716107D01*
X144779134Y-110485511D01*
X144779143Y-110494466D01*
X144779134Y-110494489D01*
X144459457Y-111263892D01*
X144453118Y-111270217D01*
X144444163Y-111270208D01*
X144443586Y-111269950D01*
X143086634Y-110618186D01*
X143080661Y-110611515D01*
X143080000Y-110607639D01*
X143080000Y-110372360D01*
X143083427Y-110364087D01*
X143086631Y-110361814D01*
X144443586Y-109710048D01*
X144452528Y-109709557D01*
X144459199Y-109715530D01*
G37*
%TD.AperFunction*%
%TD*%
%TA.AperFunction,Conductor*%
%TO.N,/VSPI_MISO*%
G36*
X142599109Y-113178719D02*
G01*
X142605427Y-113185066D01*
X142605551Y-113193655D01*
X142367859Y-113822437D01*
X142361728Y-113828964D01*
X142356915Y-113830000D01*
X142123085Y-113830000D01*
X142114812Y-113826573D01*
X142112141Y-113822437D01*
X141874448Y-113193655D01*
X141874728Y-113184705D01*
X141880889Y-113178719D01*
X142235500Y-113030875D01*
X142244449Y-113030855D01*
X142599109Y-113178719D01*
G37*
%TD.AperFunction*%
%TD*%
%TA.AperFunction,Conductor*%
%TO.N,/VSPI_MISO*%
G36*
X143673251Y-116821968D02*
G01*
X144155027Y-116991102D01*
X145093629Y-117320611D01*
X145100300Y-117326584D01*
X145100792Y-117335526D01*
X145100567Y-117336116D01*
X144782562Y-118106214D01*
X144776237Y-118112553D01*
X144776214Y-118112562D01*
X144006116Y-118430567D01*
X143997161Y-118430558D01*
X143990836Y-118424219D01*
X143990611Y-118423629D01*
X143880755Y-118110707D01*
X143604818Y-117324702D01*
X143491968Y-117003251D01*
X143492460Y-116994309D01*
X143494731Y-116991105D01*
X143661103Y-116824733D01*
X143669375Y-116821307D01*
X143673251Y-116821968D01*
G37*
%TD.AperFunction*%
%TD*%
%TA.AperFunction,Conductor*%
%TO.N,Net-(U1-GP15)*%
G36*
X137796448Y-101048697D02*
G01*
X138753034Y-101471918D01*
X138759213Y-101478400D01*
X138760000Y-101482618D01*
X138760000Y-101717381D01*
X138756573Y-101725654D01*
X138753034Y-101728081D01*
X137796450Y-102151301D01*
X137787498Y-102151514D01*
X137783991Y-102149389D01*
X137168997Y-101608788D01*
X137165046Y-101600752D01*
X137167934Y-101592275D01*
X137168997Y-101591212D01*
X137292535Y-101482618D01*
X137783993Y-101050609D01*
X137792468Y-101047722D01*
X137796448Y-101048697D01*
G37*
%TD.AperFunction*%
%TD*%
%TA.AperFunction,Conductor*%
%TO.N,Net-(U1-GP15)*%
G36*
X143937641Y-100757632D02*
G01*
X144772712Y-101591722D01*
X144776144Y-101599992D01*
X144772722Y-101608267D01*
X144772712Y-101608277D01*
X143937642Y-102442366D01*
X143929367Y-102445788D01*
X143921781Y-102442990D01*
X143921049Y-102442366D01*
X143084107Y-101728503D01*
X143080037Y-101720527D01*
X143080000Y-101719601D01*
X143080000Y-101480398D01*
X143083427Y-101472125D01*
X143084093Y-101471508D01*
X143921783Y-100757008D01*
X143930300Y-100754248D01*
X143937641Y-100757632D01*
G37*
%TD.AperFunction*%
%TD*%
%TA.AperFunction,Conductor*%
%TO.N,+3V3*%
G36*
X137795891Y-106127642D02*
G01*
X138004948Y-106193205D01*
X138751802Y-106427429D01*
X138758670Y-106433174D01*
X138760000Y-106438592D01*
X138760000Y-106921407D01*
X138756573Y-106929680D01*
X138751801Y-106932571D01*
X137795891Y-107232357D01*
X137786972Y-107231563D01*
X137784665Y-107229981D01*
X137168997Y-106688788D01*
X137165046Y-106680752D01*
X137167934Y-106672275D01*
X137168997Y-106671212D01*
X137784666Y-106130017D01*
X137793142Y-106127130D01*
X137795891Y-106127642D01*
G37*
%TD.AperFunction*%
%TD*%
%TA.AperFunction,Conductor*%
%TO.N,+3V3*%
G36*
X143269679Y-106435738D02*
G01*
X144914402Y-107036491D01*
X145077319Y-107095999D01*
X145083914Y-107102056D01*
X145084308Y-107110967D01*
X144782650Y-107945434D01*
X144776615Y-107952049D01*
X144776602Y-107952055D01*
X143940518Y-108342876D01*
X143931572Y-108343275D01*
X143925003Y-108337314D01*
X143255108Y-106932388D01*
X143253969Y-106927352D01*
X143253969Y-106446729D01*
X143257396Y-106438456D01*
X143265669Y-106435029D01*
X143269679Y-106435738D01*
G37*
%TD.AperFunction*%
%TD*%
%TA.AperFunction,Conductor*%
%TO.N,VCC*%
G36*
X111133027Y-106128436D02*
G01*
X111135334Y-106130018D01*
X111751002Y-106671212D01*
X111754953Y-106679248D01*
X111752065Y-106687725D01*
X111751002Y-106688788D01*
X111135334Y-107229981D01*
X111126857Y-107232869D01*
X111124108Y-107232357D01*
X110168199Y-106932571D01*
X110161330Y-106926825D01*
X110160000Y-106921407D01*
X110160000Y-106438592D01*
X110163427Y-106430319D01*
X110168196Y-106427429D01*
X111124108Y-106127642D01*
X111133027Y-106128436D01*
G37*
%TD.AperFunction*%
%TD*%
%TA.AperFunction,Conductor*%
%TO.N,VCC*%
G36*
X108372544Y-106427097D02*
G01*
X108379010Y-106433293D01*
X108379999Y-106438000D01*
X108379999Y-106921999D01*
X108376572Y-106930272D01*
X108372544Y-106932902D01*
X107015941Y-107461146D01*
X107006989Y-107460954D01*
X107000891Y-107454732D01*
X106680865Y-106684489D01*
X106680856Y-106675534D01*
X106680865Y-106675511D01*
X106779548Y-106438000D01*
X107000891Y-105905266D01*
X107007230Y-105898942D01*
X107015941Y-105898853D01*
X108372544Y-106427097D01*
G37*
%TD.AperFunction*%
%TD*%
%TA.AperFunction,Conductor*%
%TO.N,+5V*%
G36*
X113896886Y-114622995D02*
G01*
X116164793Y-115609435D01*
X116171012Y-115615877D01*
X116170855Y-115624831D01*
X116164413Y-115631050D01*
X116164409Y-115631052D01*
X113896169Y-116523390D01*
X113887216Y-116523230D01*
X113884747Y-116521772D01*
X112779425Y-115670551D01*
X112774961Y-115662788D01*
X112777294Y-115654142D01*
X112778283Y-115653016D01*
X113122333Y-115308966D01*
X113122523Y-115308786D01*
X113884409Y-114625017D01*
X113892853Y-114622042D01*
X113896886Y-114622995D01*
G37*
%TD.AperFunction*%
%TD*%
%TA.AperFunction,Conductor*%
%TO.N,+5V*%
G36*
X107528713Y-108872157D02*
G01*
X107534780Y-108877914D01*
X108304245Y-110486796D01*
X108304723Y-110495738D01*
X108301963Y-110500117D01*
X107960117Y-110841963D01*
X107951844Y-110845390D01*
X107946796Y-110844245D01*
X106337915Y-110074780D01*
X106331930Y-110068119D01*
X106332149Y-110059758D01*
X106677438Y-109223782D01*
X106683761Y-109217447D01*
X107519758Y-108872148D01*
X107528713Y-108872157D01*
G37*
%TD.AperFunction*%
%TD*%
%TA.AperFunction,Conductor*%
%TO.N,+5V*%
G36*
X129548268Y-118077278D02*
G01*
X129548278Y-118077288D01*
X130333127Y-118863118D01*
X130336549Y-118871393D01*
X130334490Y-118878014D01*
X129793487Y-119664928D01*
X129785976Y-119669804D01*
X129783846Y-119670000D01*
X129296154Y-119670000D01*
X129287881Y-119666573D01*
X129286513Y-119664928D01*
X129286513Y-119664927D01*
X128745508Y-118878012D01*
X128743646Y-118869256D01*
X128746870Y-118863120D01*
X129531722Y-118077287D01*
X129539993Y-118073856D01*
X129548268Y-118077278D01*
G37*
%TD.AperFunction*%
%TD*%
%TA.AperFunction,Conductor*%
%TO.N,+5V*%
G36*
X129036062Y-123351849D02*
G01*
X129378150Y-123693937D01*
X129381577Y-123702210D01*
X129380528Y-123707051D01*
X128502924Y-125637779D01*
X128496381Y-125643893D01*
X128492946Y-125644619D01*
X127012402Y-125729951D01*
X127003946Y-125727005D01*
X127000048Y-125718943D01*
X127000048Y-125717607D01*
X127085379Y-124237051D01*
X127089277Y-124228991D01*
X127092214Y-124227078D01*
X129022951Y-123349470D01*
X129031897Y-123349167D01*
X129036062Y-123351849D01*
G37*
%TD.AperFunction*%
%TD*%
%TA.AperFunction,Conductor*%
%TO.N,+5V*%
G36*
X118495442Y-114624082D02*
G01*
X118825401Y-114871551D01*
X119485321Y-115366490D01*
X119489882Y-115374194D01*
X119490000Y-115375849D01*
X119490000Y-115864149D01*
X119486573Y-115872422D01*
X119485320Y-115873509D01*
X118495442Y-116615917D01*
X118486767Y-116618139D01*
X118483759Y-116617287D01*
X116750787Y-115864149D01*
X116213688Y-115630729D01*
X116207467Y-115624290D01*
X116207622Y-115615337D01*
X116213688Y-115609270D01*
X118483759Y-114622711D01*
X118492712Y-114622557D01*
X118495442Y-114624082D01*
G37*
%TD.AperFunction*%
%TD*%
%TA.AperFunction,Conductor*%
%TO.N,+5V*%
G36*
X128358594Y-116531202D02*
G01*
X129861495Y-117265177D01*
X129867426Y-117271887D01*
X129867175Y-117280156D01*
X129542562Y-118066214D01*
X129536237Y-118072553D01*
X129536214Y-118072562D01*
X128750156Y-118397175D01*
X128741201Y-118397166D01*
X128735177Y-118391495D01*
X128001202Y-116888594D01*
X128000650Y-116879657D01*
X128003440Y-116875189D01*
X128345188Y-116533441D01*
X128353460Y-116530015D01*
X128358594Y-116531202D01*
G37*
%TD.AperFunction*%
%TD*%
M02*
